{"glyphs":{"0":{"ha":694,"x_min":44,"x_max":690,"o":"m 154 217 q 197 63 154 110 q 275 29 228 29 q 497 282 401 29 q 581 717 581 503 q 567 824 581 786 q 461 900 539 900 q 290 753 368 900 q 189 454 231 639 q 154 217 154 299 m 690 592 q 567 188 690 375 q 268 -10 436 -10 q 105 76 165 -10 q 44 278 44 161 q 183 749 44 547 q 468 939 314 939 q 649 817 592 939 q 690 592 690 726 z "},"1":{"ha":694,"x_min":68,"x_max":568,"o":"m 68 0 l 68 19 q 169 36 146 28 q 224 94 211 51 l 415 778 q 422 806 419 794 q 425 824 425 818 q 409 860 425 853 q 372 868 393 868 l 293 865 l 293 886 q 407 908 332 893 q 563 939 482 922 q 568 929 568 939 q 565 910 568 924 q 560 889 561 897 l 361 168 q 342 99 349 124 q 336 67 336 74 q 365 29 336 38 q 456 21 394 21 l 456 0 l 68 0 z "},"2":{"ha":694,"x_min":17,"x_max":628,"o":"m 556 193 l 579 183 l 510 0 l 17 0 l 17 24 l 308 335 q 481 561 435 469 q 508 668 508 617 q 464 785 508 736 q 338 838 415 838 q 200 786 257 838 q 140 707 169 758 l 111 717 q 226 882 149 825 q 403 939 304 939 q 571 863 507 939 q 628 707 628 794 q 589 574 628 636 q 421 379 546 504 l 154 113 l 154 106 l 418 106 q 513 131 481 106 q 556 193 533 147 z "},"3":{"ha":694,"x_min":21,"x_max":646,"o":"m 247 788 l 225 794 q 316 897 250 854 q 443 939 382 939 q 586 894 526 939 q 646 765 646 849 q 593 642 646 690 q 431 557 547 600 q 529 472 503 515 q 563 342 563 418 q 468 108 563 210 q 179 -10 358 -10 q 69 7 108 -10 q 21 72 21 28 q 35 112 21 97 q 86 126 50 126 q 175 85 117 126 q 274 43 233 43 q 379 88 328 43 q 451 265 451 150 q 374 456 451 399 q 194 501 311 501 l 193 524 q 411 589 326 542 q 525 754 525 651 q 488 849 525 818 q 404 881 450 881 q 301 844 349 881 q 247 788 275 824 z "},"4":{"ha":694,"x_min":1,"x_max":665,"o":"m 385 335 l 518 782 l 513 782 l 90 340 l 90 335 l 385 335 m 629 335 l 610 244 l 471 244 l 407 0 l 297 0 l 365 247 l 1 247 l 29 340 l 608 939 l 665 939 l 497 335 l 629 335 z "},"5":{"ha":694,"x_min":21,"x_max":682,"o":"m 331 826 l 276 704 q 497 600 421 675 q 582 382 582 517 q 474 119 582 235 q 163 -10 353 -10 q 56 13 92 -10 q 21 68 21 35 q 38 110 21 96 q 76 125 56 125 q 178 74 100 125 q 249 49 215 49 q 418 140 346 49 q 486 324 486 226 q 394 529 486 465 q 182 601 339 568 l 182 622 l 326 925 l 682 925 l 650 826 l 331 826 z "},"6":{"ha":694,"x_min":42,"x_max":724,"o":"m 722 953 l 724 931 q 421 776 565 910 q 276 594 318 682 l 282 592 q 342 613 311 607 q 406 621 374 621 q 558 568 494 621 q 640 365 640 500 q 556 125 640 238 q 292 -10 454 -10 q 125 56 193 -10 q 42 292 42 136 q 222 729 42 529 q 722 953 424 953 m 353 571 q 203 463 258 571 q 147 218 147 356 q 181 76 147 125 q 283 26 214 26 q 460 161 390 26 q 517 390 517 272 q 475 524 517 476 q 353 571 433 571 z "},"7":{"ha":694,"x_min":104,"x_max":746,"o":"m 746 911 l 207 -11 l 110 -11 l 619 819 l 617 824 l 308 824 q 196 794 240 824 q 124 724 169 776 l 104 736 l 217 925 l 738 925 l 746 911 z "},"8":{"ha":694,"x_min":42,"x_max":685,"o":"m 42 218 q 117 391 42 318 q 313 500 192 464 q 192 728 192 629 q 265 884 192 829 q 443 939 339 939 q 597 897 531 939 q 685 740 685 843 q 600 594 685 653 q 457 531 551 561 q 578 380 540 447 q 617 233 617 313 q 539 67 617 136 q 319 -10 454 -10 q 88 88 160 -10 q 42 218 42 149 m 136 214 q 188 76 136 131 q 329 21 240 21 q 449 67 394 21 q 513 213 513 121 q 457 356 513 288 q 343 478 432 386 q 193 374 256 450 q 136 214 136 303 m 300 753 q 315 685 300 713 q 432 554 342 635 q 540 619 511 592 q 590 744 590 667 q 558 850 590 804 q 442 907 518 907 q 338 865 375 907 q 300 753 300 824 z "},"9":{"ha":694,"x_min":32,"x_max":683,"o":"m 32 -24 l 32 1 q 260 104 149 21 q 421 263 350 171 q 489 378 478 336 l 483 381 q 394 335 439 351 q 306 318 349 318 q 157 385 214 318 q 96 576 96 456 q 200 828 96 717 q 429 939 304 939 q 610 863 542 939 q 683 631 683 781 q 515 217 683 403 q 32 -24 331 13 m 218 572 q 238 461 218 504 q 363 382 274 382 q 443 400 403 382 q 522 465 494 424 q 563 581 546 501 q 579 699 579 660 q 563 821 579 778 q 442 903 531 903 q 271 786 335 903 q 218 572 218 690 z "}," ":{"ha":347,"x_min":0,"x_max":0,"o":""},"!":{"ha":463,"x_min":54,"x_max":419,"o":"m 190 246 l 167 251 q 267 765 233 553 q 308 897 282 860 q 364 926 329 926 q 413 897 400 926 q 419 857 419 882 q 392 742 419 810 q 326 593 356 661 q 242 382 296 525 q 190 246 203 278 m 54 61 q 74 107 54 83 q 126 131 94 131 q 180 109 157 131 q 203 57 203 88 q 180 6 203 28 q 125 -15 157 -15 q 72 8 90 -15 q 54 61 54 31 z "},"\"":{"ha":583,"x_min":200,"x_max":600,"o":"m 478 585 l 449 585 q 464 751 456 661 q 480 867 472 840 q 509 909 488 893 q 554 925 531 925 q 600 882 600 925 q 543 728 600 860 q 478 585 525 688 m 229 585 l 200 585 q 215 751 207 661 q 231 867 224 840 q 260 909 239 893 q 306 925 282 925 q 351 882 351 925 q 294 728 351 860 q 229 585 276 688 z "},"#":{"ha":694,"x_min":3,"x_max":750,"o":"m 646 371 l 631 296 l 485 296 l 375 0 l 289 0 l 400 296 l 219 296 l 110 0 l 24 0 l 135 296 l 3 296 l 18 371 l 164 371 l 239 569 l 106 569 l 121 644 l 267 644 l 378 939 l 463 939 l 351 644 l 532 644 l 643 939 l 728 939 l 617 644 l 750 644 l 735 569 l 589 569 l 514 371 l 646 371 m 504 569 l 324 569 l 249 371 l 429 371 l 504 569 z "},"$":{"ha":694,"x_min":43,"x_max":690,"o":"m 392 583 l 467 890 q 330 855 381 890 q 279 744 279 819 q 301 669 279 706 q 392 583 322 633 m 401 425 l 307 35 q 433 64 376 35 q 528 226 528 113 q 494 336 528 290 q 410 418 474 364 l 401 425 m 690 850 l 651 692 l 631 694 q 590 831 631 785 q 513 879 568 857 l 435 550 q 583 414 543 468 q 632 272 632 350 q 567 90 632 160 q 299 0 482 0 l 269 -124 l 221 -124 l 251 3 q 108 50 172 18 q 43 93 68 71 l 81 264 l 103 268 q 136 129 115 168 q 263 44 171 65 l 358 457 q 228 569 274 514 q 171 707 171 638 q 255 872 171 815 q 474 928 339 928 l 497 1015 l 544 1015 l 522 921 q 593 900 556 914 q 690 850 650 879 z "},"%":{"ha":1157,"x_min":110,"x_max":1097,"o":"m 650 190 q 743 411 650 307 q 946 515 836 515 q 1032 496 997 515 q 1097 363 1097 458 q 1021 122 1097 233 q 824 0 938 0 q 693 50 736 0 q 650 190 650 100 m 756 146 q 777 66 756 90 q 843 42 799 42 q 1001 160 932 42 q 1063 351 1063 263 q 1034 438 1063 406 q 963 471 1006 471 q 811 335 878 471 q 756 146 756 222 m 907 939 l 371 -18 l 306 -18 l 789 846 l 786 849 q 722 820 754 831 q 640 810 689 810 q 588 812 601 810 q 550 824 575 814 q 557 785 554 803 q 560 751 560 768 q 490 538 560 647 q 274 401 404 401 q 164 446 210 401 q 110 588 110 499 q 203 813 110 706 q 408 919 296 919 q 507 890 474 919 l 532 868 q 633 844 560 844 q 775 878 714 844 q 851 939 808 896 l 907 939 m 303 449 q 455 551 386 449 q 524 765 524 653 q 511 833 524 793 q 438 868 465 844 q 417 878 426 878 q 284 762 353 878 q 215 547 215 646 q 225 488 215 507 q 303 449 244 449 z "},"&":{"ha":1081,"x_min":106,"x_max":1004,"o":"m 736 486 l 993 486 l 993 463 q 921 443 947 463 q 872 385 907 433 q 818 306 869 382 q 722 174 772 238 q 802 75 758 107 q 890 43 846 43 q 949 57 922 43 q 989 85 960 63 l 1004 69 q 924 -1 967 24 q 826 -25 881 -25 q 704 14 758 -25 q 635 85 674 35 q 525 18 556 35 q 353 -25 443 -25 q 204 13 268 -25 q 106 192 106 69 q 157 340 106 275 q 286 443 200 394 q 460 525 336 471 l 450 640 q 513 847 450 768 q 674 925 576 925 q 774 888 733 925 q 814 797 814 850 q 726 643 814 715 q 575 551 676 603 q 619 394 593 475 q 696 222 657 282 q 774 324 753 292 q 806 414 806 374 q 788 450 806 440 q 736 460 769 460 l 736 486 m 236 232 q 292 94 236 146 q 417 47 343 47 q 512 65 460 47 q 608 125 564 83 q 522 296 567 176 q 463 479 492 376 q 350 417 388 443 q 236 232 236 333 m 569 594 q 675 675 649 644 q 718 803 718 725 q 694 871 718 853 q 654 881 681 881 q 579 821 601 881 q 563 704 563 776 q 563 653 563 665 q 569 594 564 640 z "},"'":{"ha":297,"x_min":183,"x_max":335,"o":"m 213 585 l 183 585 q 199 751 190 661 q 215 867 207 840 q 244 909 222 893 q 289 925 265 925 q 335 882 335 925 q 278 728 335 860 q 213 585 260 688 z "},"(":{"ha":463,"x_min":58,"x_max":438,"o":"m 221 -243 l 196 -251 q 76 60 108 -106 q 58 268 58 156 q 144 607 58 446 q 419 929 231 768 l 438 908 q 336 788 371 839 q 233 575 278 700 q 176 345 197 474 q 154 143 154 217 q 163 -21 154 43 q 221 -243 176 -131 z "},")":{"ha":463,"x_min":22,"x_max":401,"o":"m 40 -250 l 22 -229 q 124 -108 88 -161 q 226 101 185 -19 q 286 341 267 222 q 306 560 306 460 q 287 764 306 671 q 238 922 268 857 l 264 929 q 368 682 335 814 q 401 408 401 550 q 299 43 401 219 q 40 -250 206 -117 z "},"*":{"ha":694,"x_min":178,"x_max":683,"o":"m 633 808 q 668 794 653 808 q 683 761 683 781 q 617 699 683 713 q 456 638 511 678 l 507 611 q 625 578 526 601 q 683 525 683 564 q 668 486 683 501 q 632 471 653 471 q 582 497 606 471 q 453 614 501 586 l 443 619 q 456 501 443 547 q 482 410 468 456 q 467 369 482 385 q 428 354 451 354 q 390 372 401 354 q 379 408 379 389 q 406 503 379 414 q 419 583 419 550 l 417 619 q 360 583 386 603 q 310 533 335 564 q 274 492 286 503 q 226 472 251 472 q 191 488 204 472 q 178 518 178 504 q 246 581 178 565 q 408 640 356 604 l 392 650 q 242 699 350 675 q 178 760 178 713 q 192 794 178 782 q 225 807 207 807 q 313 742 250 807 q 418 661 357 696 q 406 770 418 721 q 382 869 394 819 q 433 925 382 925 q 467 910 453 925 q 481 871 481 896 q 456 772 481 860 q 443 694 443 729 l 443 657 q 510 708 488 688 q 561 758 533 728 q 594 793 589 788 q 633 808 611 808 z "},"+":{"ha":938,"x_min":119,"x_max":819,"o":"m 424 397 l 424 703 l 515 703 l 515 397 l 819 397 l 819 306 l 515 306 l 515 0 l 424 0 l 424 306 l 119 306 l 119 397 l 424 397 z "},",":{"ha":347,"x_min":-6,"x_max":188,"o":"m 7 -179 l -6 -156 q 57 -108 36 -129 q 99 -35 99 -68 q 79 4 99 -14 q 36 75 36 46 q 56 122 36 104 q 106 140 75 140 q 164 112 140 140 q 188 40 188 83 q 128 -90 188 -25 q 7 -179 79 -144 z "},"-":{"ha":463,"x_min":68,"x_max":392,"o":"m 392 354 l 374 267 l 68 267 l 88 354 l 392 354 z "},".":{"ha":347,"x_min":38,"x_max":192,"o":"m 114 -15 q 65 1 86 -15 q 38 60 38 24 q 60 115 38 92 q 114 139 82 139 q 168 115 144 139 q 192 60 192 92 q 166 5 192 25 q 114 -15 140 -15 z "},"/":{"ha":386,"x_min":-90,"x_max":536,"o":"m 435 925 l 536 925 l 11 -25 l -90 -25 l 435 925 z "},":":{"ha":463,"x_min":69,"x_max":363,"o":"m 147 -15 q 97 1 118 -15 q 69 60 69 24 q 92 115 69 92 q 147 139 114 139 q 201 116 178 139 q 224 60 224 93 q 199 4 224 24 q 147 -15 175 -15 m 285 458 q 236 475 258 458 q 208 533 208 496 q 231 590 208 568 q 285 613 253 613 q 340 590 318 613 q 363 533 363 568 q 337 478 363 499 q 285 458 311 458 z "},";":{"ha":463,"x_min":38,"x_max":363,"o":"m 50 -179 l 38 -156 q 100 -108 79 -129 q 142 -35 142 -68 q 122 4 142 -14 q 79 75 79 46 q 99 122 79 104 q 149 140 118 140 q 207 112 183 140 q 231 40 231 83 q 171 -90 231 -25 q 50 -179 122 -144 m 285 458 q 236 475 258 458 q 208 533 208 496 q 231 590 208 568 q 285 613 253 613 q 340 590 318 613 q 363 533 363 568 q 337 478 363 499 q 285 458 311 458 z "},"<":{"ha":938,"x_min":117,"x_max":822,"o":"m 822 83 l 822 -11 l 117 308 l 117 394 l 822 714 l 822 619 l 232 351 l 822 83 z "},"=":{"ha":938,"x_min":119,"x_max":819,"o":"m 819 536 l 819 444 l 119 444 l 119 536 l 819 536 m 819 258 l 819 167 l 119 167 l 119 258 l 819 258 z "},">":{"ha":938,"x_min":117,"x_max":822,"o":"m 117 83 l 707 351 l 117 619 l 117 714 l 822 394 l 822 308 l 117 -11 l 117 83 z "},"?":{"ha":694,"x_min":183,"x_max":656,"o":"m 300 242 l 276 244 q 347 456 276 358 q 481 606 414 531 q 553 775 553 692 q 536 846 553 818 q 442 892 508 892 q 373 875 401 892 q 344 826 344 858 q 355 788 344 808 q 365 753 365 767 q 343 713 365 725 q 310 704 329 704 q 256 769 256 704 q 311 881 256 840 q 446 922 367 922 q 600 874 544 922 q 656 746 656 825 q 615 625 656 676 q 469 492 583 585 q 376 407 404 439 q 310 282 325 349 l 300 242 m 331 57 q 314 10 331 31 q 258 -17 293 -17 q 204 3 225 -17 q 183 54 183 22 q 204 106 183 85 q 257 126 225 126 q 311 103 292 126 q 331 57 331 79 z "},"@":{"ha":1278,"x_min":164,"x_max":1119,"o":"m 792 544 q 733 633 792 633 q 614 563 674 633 q 544 367 544 481 q 569 281 544 310 q 631 251 593 251 q 726 325 681 251 q 792 544 779 408 m 815 624 l 829 675 l 925 675 l 835 325 q 831 296 831 304 q 842 254 831 271 q 883 238 853 238 q 1017 332 964 238 q 1064 518 1064 415 q 961 758 1064 650 q 667 882 844 882 q 394 764 500 882 q 279 414 279 635 q 389 149 279 261 q 679 29 506 29 q 832 47 765 29 q 953 94 875 58 l 969 54 q 833 -1 888 15 q 681 -25 756 -25 q 288 132 433 -25 q 164 429 164 265 q 310 785 164 646 q 667 925 457 925 q 990 809 860 925 q 1119 519 1119 693 q 1053 303 1119 401 q 863 192 978 192 q 767 233 803 192 q 740 289 740 264 q 682 235 715 258 q 578 193 631 197 q 499 219 531 193 q 446 364 446 263 q 511 565 446 463 q 717 694 593 694 q 783 671 758 694 q 815 624 794 660 z "},"A":{"ha":849,"x_min":-71,"x_max":783,"o":"m 783 22 l 783 0 l 442 0 l 442 22 q 550 92 550 22 l 547 132 l 519 314 l 214 314 l 135 157 q 114 110 121 129 q 107 71 107 92 q 122 35 107 44 q 189 22 138 26 l 189 0 l -71 0 l -71 22 q -4 58 -28 32 q 108 233 25 90 l 511 928 l 547 928 l 678 142 q 707 47 690 67 q 783 22 724 28 m 243 364 l 513 364 l 451 724 l 450 724 l 243 364 z "},"B":{"ha":849,"x_min":-11,"x_max":817,"o":"m -11 0 l -11 22 q 61 46 44 32 q 101 125 85 65 l 272 739 q 281 778 275 751 q 288 825 288 804 q 261 872 288 860 q 181 885 235 885 l 181 907 l 539 907 q 732 864 663 907 q 817 700 817 811 q 747 558 817 613 q 578 489 686 511 q 690 421 658 451 q 749 276 749 365 q 632 67 749 143 q 381 0 529 0 l -11 0 m 238 104 q 265 53 238 68 q 324 42 286 42 q 535 114 464 42 q 599 289 599 178 q 578 376 599 340 q 524 435 558 413 q 456 455 500 450 q 331 460 411 460 q 293 317 319 413 q 238 104 238 115 m 435 826 l 344 504 q 560 531 494 504 q 676 721 676 578 q 521 865 676 865 q 451 854 469 865 q 435 826 440 847 z "},"C":{"ha":926,"x_min":92,"x_max":957,"o":"m 906 646 l 881 650 q 824 813 881 751 q 667 875 768 875 q 353 682 476 875 q 247 335 247 517 q 307 116 247 194 q 489 38 367 38 q 683 94 593 38 q 810 201 731 125 l 833 182 q 701 56 764 100 q 456 -25 588 -25 q 214 58 314 -25 q 92 350 92 160 q 254 738 92 560 q 656 925 426 925 q 760 915 707 925 q 872 892 815 903 q 909 899 899 892 q 928 922 919 907 l 957 922 l 906 646 z "},"D":{"ha":1003,"x_min":-11,"x_max":972,"o":"m 181 885 l 181 907 l 567 907 q 889 778 782 907 q 972 538 972 678 q 810 164 972 315 q 340 0 633 0 l -11 0 l -11 22 q 61 46 44 32 q 101 125 85 65 l 272 739 q 281 781 275 750 q 288 825 288 811 q 181 885 288 885 m 435 825 l 267 225 q 244 137 251 168 q 236 96 236 106 q 259 53 236 64 q 335 42 282 42 q 654 156 532 42 q 790 383 747 242 q 818 554 818 475 q 764 763 818 685 q 525 865 692 865 q 453 853 472 865 q 435 825 440 844 z "},"E":{"ha":849,"x_min":-1,"x_max":881,"o":"m 881 907 l 838 694 l 808 697 q 779 829 808 807 q 554 861 739 861 q 466 855 482 861 q 443 825 450 849 l 351 501 q 547 512 507 501 q 614 560 588 522 q 632 593 621 571 q 653 636 649 628 l 678 631 l 583 308 l 556 315 q 565 381 565 351 q 534 444 565 433 q 339 456 503 456 q 258 161 272 215 q 244 93 244 107 q 293 50 244 60 q 340 46 315 46 q 617 89 531 46 q 767 236 686 124 l 789 225 l 703 0 l -1 0 l -1 22 q 71 46 54 32 q 111 125 94 65 l 282 739 q 290 781 283 744 q 297 824 297 818 q 190 885 297 885 l 190 907 l 881 907 z "},"F":{"ha":849,"x_min":11,"x_max":896,"o":"m 896 907 l 851 694 l 822 697 l 826 756 q 776 840 826 819 q 571 861 725 861 q 485 856 504 861 q 458 825 465 850 l 367 501 q 581 518 543 501 q 667 631 618 535 l 692 624 l 586 299 l 563 306 q 570 347 567 326 q 574 386 574 367 q 549 442 574 426 q 504 451 533 451 q 418 453 453 451 q 354 456 383 454 l 268 146 q 256 83 256 100 q 290 32 256 46 q 361 22 314 22 l 361 0 l 11 0 l 11 22 q 71 35 60 31 q 125 125 104 50 l 296 739 q 307 785 303 761 q 311 825 311 808 q 287 873 311 861 q 204 885 263 885 l 204 907 l 896 907 z "},"G":{"ha":1003,"x_min":72,"x_max":1003,"o":"m 983 919 l 915 646 l 890 650 q 803 832 890 772 q 640 878 736 878 q 328 678 449 878 q 225 307 225 508 q 276 126 225 199 q 506 26 349 26 q 587 37 557 26 q 651 74 617 47 q 711 225 676 93 q 742 369 742 342 q 719 406 742 397 q 633 421 696 415 l 633 443 l 1003 443 l 1003 421 q 914 402 943 421 q 868 321 885 383 l 800 61 q 647 -2 735 21 q 479 -25 558 -25 q 190 72 297 -25 q 72 333 72 181 q 241 748 72 571 q 635 925 410 925 q 755 910 696 925 q 875 878 814 894 q 933 893 911 878 q 963 925 946 901 l 983 919 z "},"H":{"ha":1003,"x_min":-11,"x_max":1065,"o":"m 1065 907 l 1065 885 q 992 863 1007 874 q 951 782 968 844 l 768 114 q 764 81 764 94 q 794 36 764 49 q 872 22 817 28 l 872 0 l 493 0 l 493 22 q 578 43 556 31 q 633 125 617 64 l 724 453 l 328 453 l 236 114 q 232 81 232 94 q 258 38 232 50 q 331 22 275 31 l 331 0 l -11 0 l -11 22 q 61 46 44 32 q 101 125 85 65 l 272 739 q 284 785 281 765 q 288 825 288 804 q 262 872 288 858 q 181 885 236 885 l 181 907 l 560 907 l 560 885 q 481 867 506 881 q 419 782 436 843 l 344 511 l 740 511 l 804 739 q 816 785 813 765 q 819 825 819 804 q 804 863 819 850 q 722 885 789 876 l 722 907 l 1065 907 z "},"I":{"ha":463,"x_min":-11,"x_max":533,"o":"m -11 0 l -11 22 q 61 46 44 32 q 101 125 85 65 l 272 739 q 284 785 281 765 q 288 825 288 804 q 272 863 288 850 q 190 885 257 876 l 190 907 l 533 907 l 533 885 q 460 863 475 874 q 419 782 436 844 l 249 167 q 237 120 240 138 q 233 78 233 103 q 254 38 233 47 q 328 22 275 28 l 328 0 l -11 0 z "},"J":{"ha":617,"x_min":-8,"x_max":682,"o":"m 682 907 l 682 885 q 622 872 633 876 q 568 782 589 857 l 425 267 q 307 29 376 90 q 149 -25 244 -25 q 43 4 88 -25 q -8 97 -8 38 q 8 151 -8 131 q 56 172 25 172 q 103 153 83 172 q 122 107 122 133 l 121 72 q 169 18 121 18 q 218 44 200 18 q 238 93 226 58 l 419 739 q 432 793 428 772 q 436 826 436 814 q 411 869 436 858 q 329 885 386 879 l 329 907 l 682 907 z "},"K":{"ha":926,"x_min":10,"x_max":1003,"o":"m 1003 907 l 1003 885 q 956 869 981 882 q 899 835 931 857 l 482 521 l 724 100 q 773 40 751 51 q 858 22 794 29 l 858 0 l 476 0 l 476 22 q 542 31 531 28 q 581 64 581 39 q 569 113 581 83 q 528 194 558 142 l 368 469 l 357 471 l 274 167 q 260 119 267 142 q 254 86 254 97 q 273 39 254 49 q 354 22 292 29 l 354 0 l 10 0 l 10 22 q 85 44 69 32 q 124 125 107 63 l 294 739 q 306 785 303 765 q 310 825 310 804 q 284 872 310 858 q 203 885 258 885 l 203 907 l 582 907 l 582 885 q 484 855 513 878 q 442 782 456 832 l 371 521 l 379 519 l 579 660 q 714 767 657 715 q 779 850 779 826 q 766 874 779 868 q 694 885 753 879 l 694 907 l 1003 907 z "},"L":{"ha":772,"x_min":-11,"x_max":776,"o":"m 560 907 l 560 885 q 481 867 506 881 q 419 782 436 843 l 249 167 l 236 114 q 235 105 235 110 q 235 99 235 100 q 272 58 235 67 q 376 50 308 50 q 590 76 529 50 q 749 257 686 118 l 776 249 l 696 0 l -11 0 l -11 22 q 61 46 44 32 q 101 125 85 65 l 272 739 q 284 785 281 765 q 288 825 288 804 q 262 872 288 858 q 181 885 236 885 l 181 907 l 560 907 z "},"M":{"ha":1157,"x_min":-25,"x_max":1213,"o":"m 1213 907 l 1213 885 q 1138 863 1153 875 q 1099 782 1115 844 l 928 167 q 915 119 918 135 q 913 83 913 104 q 933 38 913 47 q 1019 22 953 28 l 1019 0 l 640 0 l 640 22 q 736 51 707 29 q 781 126 765 72 l 957 768 l 436 0 l 413 0 l 329 744 l 324 744 l 164 157 q 156 118 160 143 q 151 88 151 93 q 183 35 151 51 q 250 22 208 22 l 250 0 l -25 0 l -25 22 q 49 56 26 31 q 111 203 79 90 l 258 719 q 278 787 267 749 q 289 831 289 825 q 265 869 289 854 q 186 885 240 885 l 186 907 l 438 907 l 514 228 l 981 907 l 1213 907 z "},"N":{"ha":926,"x_min":-28,"x_max":1010,"o":"m 1010 907 l 1010 885 q 923 839 944 871 q 865 678 901 807 l 665 -21 l 640 -21 l 324 735 l 318 735 l 163 157 q 153 113 156 133 q 150 85 150 93 q 183 33 150 49 q 247 22 207 22 l 247 0 l -28 0 l -28 22 q 54 63 31 31 q 115 228 78 94 l 281 807 q 235 867 261 849 q 161 885 210 885 l 161 907 l 385 907 l 671 219 l 815 742 q 825 778 819 758 q 831 811 831 797 q 810 869 831 853 q 733 885 790 885 l 733 907 l 1010 907 z "},"O":{"ha":1003,"x_min":83,"x_max":971,"o":"m 971 588 q 796 176 971 369 q 388 -25 614 -25 q 192 46 275 -25 q 83 315 83 138 q 272 735 83 539 q 649 925 456 925 q 872 844 785 925 q 971 588 971 754 m 229 251 q 238 165 229 200 q 410 21 272 21 q 642 147 538 21 q 779 415 726 250 q 825 656 825 558 q 785 815 825 760 q 643 879 739 879 q 414 757 517 879 q 275 494 329 656 q 229 251 229 357 z "},"P":{"ha":849,"x_min":0,"x_max":840,"o":"m 203 885 l 203 907 l 547 907 q 765 854 689 907 q 840 696 840 801 q 767 522 840 597 q 483 424 669 424 q 391 426 417 424 q 336 435 365 428 l 263 167 q 249 113 251 128 q 246 82 246 97 q 264 40 246 50 q 340 22 282 31 l 340 0 l 0 0 l 0 22 q 60 35 49 31 q 114 125 93 50 l 278 715 q 293 772 285 736 q 301 822 301 808 q 279 867 301 857 q 203 885 257 878 m 447 826 l 349 482 q 379 477 365 479 q 411 475 393 475 q 592 503 535 475 q 697 704 697 554 q 658 824 697 788 q 503 865 614 865 q 461 853 475 865 q 447 826 454 846 z "},"Q":{"ha":1003,"x_min":82,"x_max":971,"o":"m 388 -22 l 313 -101 l 347 -100 q 501 -129 383 -100 q 664 -158 619 -158 q 789 -140 738 -158 q 907 -53 840 -121 l 928 -68 q 749 -215 864 -165 q 594 -253 664 -253 q 408 -222 529 -253 q 258 -192 288 -192 q 174 -202 215 -192 q 96 -235 133 -212 l 82 -214 q 192 -133 168 -151 q 328 -17 222 -108 q 164 72 226 3 q 83 315 83 161 q 272 735 83 539 q 649 925 456 925 q 872 844 785 925 q 971 588 971 754 q 796 178 971 371 q 388 -22 614 -22 m 229 251 q 274 85 229 147 q 410 24 318 24 q 642 149 539 24 q 779 415 726 251 q 825 656 825 557 q 785 815 825 760 q 643 879 739 879 q 414 757 517 879 q 275 494 329 656 q 229 251 229 357 z "},"R":{"ha":849,"x_min":-18,"x_max":817,"o":"m 788 22 l 788 0 l 582 0 l 411 450 l 321 457 l 243 167 q 230 113 233 132 q 226 88 226 94 q 242 40 226 50 q 321 22 258 31 l 321 0 l -18 0 l -18 22 q 56 44 42 33 q 94 125 76 61 l 265 739 q 275 783 268 751 q 282 819 282 815 q 243 875 282 864 q 183 885 231 879 l 183 907 l 528 907 q 740 857 663 907 q 817 707 817 807 q 756 558 817 618 q 543 463 686 489 l 672 122 q 721 42 694 61 q 788 22 747 22 m 428 826 l 338 508 q 370 504 349 507 q 419 501 392 501 q 619 568 556 501 q 671 714 671 622 q 618 835 671 796 q 506 865 576 865 q 449 857 463 865 q 428 826 436 849 z "},"S":{"ha":694,"x_min":24,"x_max":706,"o":"m 650 650 l 625 654 q 601 796 625 747 q 451 879 561 879 q 347 844 389 879 q 304 740 304 808 q 327 651 304 688 q 443 522 350 614 q 567 374 536 429 q 599 250 599 319 q 528 64 599 142 q 317 -25 447 -25 q 192 0 263 -25 q 103 25 121 25 q 69 16 82 25 q 49 -21 57 7 l 24 -21 l 71 289 l 99 286 l 96 257 q 151 92 96 161 q 299 24 207 24 q 438 89 388 24 q 478 207 478 142 q 447 313 478 267 q 381 388 438 326 q 210 584 239 539 q 182 697 182 629 q 252 860 182 796 q 421 925 322 925 q 490 922 468 925 q 542 908 513 918 q 583 894 571 897 q 613 890 594 890 q 674 926 650 890 l 706 926 l 650 650 z "},"T":{"ha":772,"x_min":82,"x_max":879,"o":"m 879 907 l 818 681 l 794 683 q 799 738 799 715 q 763 833 799 807 q 654 858 726 858 l 578 858 l 385 167 q 368 88 368 108 q 390 33 368 44 q 493 22 413 22 l 493 0 l 90 0 l 90 22 q 178 40 154 28 q 238 125 221 63 l 438 858 q 235 838 283 858 q 107 688 164 807 l 82 693 l 140 907 l 879 907 z "},"U":{"ha":1003,"x_min":142,"x_max":1063,"o":"m 1063 907 l 1063 885 q 976 840 997 871 q 918 678 956 808 l 803 282 q 681 60 758 132 q 438 -25 589 -25 q 236 32 318 -25 q 142 210 142 97 q 178 415 142 274 q 247 665 183 438 q 285 825 285 799 q 265 869 285 860 q 176 885 244 879 l 176 907 l 556 907 l 556 885 q 471 863 497 879 q 415 776 432 839 q 369 615 414 769 q 301 369 318 432 q 267 200 267 233 q 329 69 267 114 q 460 32 382 32 q 628 90 560 32 q 758 335 710 160 q 825 581 796 469 q 885 814 885 801 q 859 870 885 856 q 786 885 833 885 l 786 907 l 1063 907 z "},"V":{"ha":849,"x_min":106,"x_max":956,"o":"m 956 907 l 956 885 q 904 863 929 885 q 878 829 890 850 l 360 -25 l 333 -25 l 215 697 q 179 851 194 825 q 106 885 164 878 l 106 907 l 440 907 l 440 885 q 363 869 381 878 q 333 814 333 854 q 335 793 333 801 l 425 188 l 432 188 l 713 672 q 753 747 739 719 q 785 836 785 813 q 751 874 785 861 q 697 885 731 881 l 697 907 l 956 907 z "},"W":{"ha":1157,"x_min":99,"x_max":1258,"o":"m 1258 907 l 1258 885 q 1201 856 1218 872 q 1154 785 1183 840 l 733 -25 l 706 -25 l 636 606 l 629 606 l 321 -25 l 294 -25 l 208 693 q 178 852 192 828 q 99 885 164 876 l 99 907 l 426 907 l 426 885 q 367 875 382 879 q 325 810 325 861 q 326 789 325 796 l 381 274 l 386 232 l 626 708 l 614 804 q 589 869 607 854 q 510 885 571 885 l 510 907 l 840 907 l 840 885 q 772 868 790 879 q 746 804 746 850 q 747 783 746 790 l 803 232 l 1063 736 q 1083 788 1075 763 q 1092 825 1092 813 q 1069 872 1092 860 q 1001 885 1056 879 l 1001 907 l 1258 907 z "},"X":{"ha":849,"x_min":-40,"x_max":910,"o":"m 910 907 l 910 885 q 842 853 867 869 q 736 753 797 822 l 501 483 l 643 125 q 692 46 668 61 q 788 22 717 31 l 788 0 l 408 0 l 408 22 q 491 33 468 22 q 514 78 514 43 q 499 144 514 110 l 406 374 l 196 135 q 174 103 182 119 q 167 71 167 88 q 191 31 167 39 q 257 22 215 22 l 257 0 l -40 0 l -40 22 q 6 38 -14 28 q 54 69 26 49 q 144 164 72 83 q 381 435 235 265 l 233 800 q 192 864 215 847 q 106 885 163 885 l 106 907 l 472 907 l 472 885 q 395 867 417 879 q 374 824 374 856 q 381 790 374 814 q 394 750 388 765 l 476 546 l 678 778 q 697 803 694 797 q 706 835 706 817 q 685 870 706 860 q 621 885 664 881 l 621 907 l 910 907 z "},"Y":{"ha":772,"x_min":108,"x_max":879,"o":"m 126 885 l 126 907 l 458 907 l 458 885 q 399 878 411 881 q 358 832 358 868 q 392 692 358 810 q 451 482 421 586 q 606 667 528 574 q 713 838 713 800 q 694 872 713 864 q 617 885 675 879 l 617 907 l 879 907 l 879 885 q 833 856 850 871 q 782 800 815 842 l 478 425 l 438 285 q 404 171 411 196 q 386 82 386 107 q 411 33 386 44 q 510 22 436 22 l 510 0 l 108 0 l 108 22 q 196 40 172 28 q 254 125 236 63 l 339 419 l 232 793 q 199 863 215 850 q 126 885 183 876 z "},"Z":{"ha":772,"x_min":-8,"x_max":842,"o":"m 842 907 l 842 888 l 171 50 l 394 50 q 624 87 561 50 q 742 238 688 124 l 768 233 l 693 0 l -8 0 l -8 19 l 657 857 l 419 857 q 213 814 274 857 q 129 697 174 786 l 103 704 l 167 907 l 842 907 z "},"[":{"ha":540,"x_min":29,"x_max":543,"o":"m 382 835 l 160 -107 l 154 -135 q 179 -169 154 -160 q 222 -175 194 -175 l 300 -175 l 290 -212 l 29 -212 l 303 921 l 543 921 l 533 883 l 447 883 q 382 835 393 883 z "},"\\":{"ha":386,"x_min":-57,"x_max":443,"o":"m -57 925 l 43 925 l 443 -25 l 344 -25 l -57 925 z "},"]":{"ha":540,"x_min":17,"x_max":531,"o":"m 176 -125 l 400 817 l 406 844 q 384 876 406 869 q 338 883 363 883 l 258 883 l 268 921 l 531 921 l 257 -212 l 17 -212 l 26 -175 l 113 -175 q 156 -166 142 -175 q 176 -125 169 -157 z "},"^":{"ha":586,"x_min":0,"x_max":586,"o":"m 94 418 l 0 418 l 251 925 l 335 925 l 586 418 l 492 418 l 293 819 l 94 418 z "},"_":{"ha":694,"x_min":0,"x_max":694,"o":"m 694 -174 l 0 -174 l 0 -104 l 694 -104 l 694 -174 z "},"`":{"ha":463,"x_min":168,"x_max":432,"o":"m 389 683 l 194 831 q 174 852 179 843 q 168 874 168 861 q 181 909 168 896 q 218 922 194 922 q 242 917 232 922 q 271 890 253 913 l 432 683 l 389 683 z "},"a":{"ha":694,"x_min":24,"x_max":661,"o":"m 644 153 l 661 139 q 471 -14 538 -14 q 419 7 432 -14 q 413 46 413 18 q 442 193 413 82 l 439 196 q 292 26 356 74 q 167 -15 235 -15 q 60 26 97 -15 q 24 149 24 67 q 153 458 24 303 q 421 613 283 613 q 497 590 465 613 q 531 538 528 568 l 547 599 l 551 603 l 636 613 l 646 608 q 610 472 628 540 q 547 229 565 303 q 514 75 514 93 q 533 57 514 57 q 644 153 546 57 m 140 151 q 168 75 140 101 q 224 53 192 53 q 421 219 325 53 q 507 489 507 369 q 484 559 507 536 q 428 582 461 582 q 224 414 318 582 q 140 151 140 265 z "},"b":{"ha":694,"x_min":32,"x_max":657,"o":"m 539 426 q 522 501 539 474 q 438 544 497 544 q 238 358 333 544 q 151 63 151 190 q 168 28 151 40 q 217 17 185 17 q 449 178 344 17 q 539 426 539 317 m 153 893 l 153 917 q 256 931 199 922 q 365 949 314 939 l 372 942 q 308 693 333 790 q 231 413 265 526 q 332 539 290 499 q 492 613 410 613 q 611 567 565 613 q 657 444 657 521 q 515 132 657 279 q 213 -15 374 -15 q 94 10 157 -15 q 32 58 32 35 l 32 64 l 221 760 q 239 824 235 807 q 243 853 243 842 q 228 885 243 878 q 153 893 213 893 z "},"c":{"ha":617,"x_min":42,"x_max":590,"o":"m 486 147 l 508 133 q 419 43 463 75 q 247 -15 340 -15 q 111 25 163 -15 q 42 204 42 79 q 164 483 42 354 q 439 613 286 613 q 558 572 517 613 q 590 500 590 542 q 571 454 590 472 q 525 436 551 436 q 469 488 469 436 q 480 528 469 508 q 490 556 490 547 q 474 576 490 569 q 438 583 458 583 q 232 444 315 583 q 161 204 161 325 q 288 35 161 35 q 399 69 344 35 q 486 147 439 96 z "},"d":{"ha":694,"x_min":21,"x_max":732,"o":"m 226 51 q 410 204 321 51 q 494 488 494 350 q 488 546 494 529 q 429 581 472 581 q 228 415 324 581 q 142 154 142 267 q 151 94 142 115 q 226 51 171 51 m 643 154 l 660 140 q 558 28 617 74 q 464 -18 500 -18 q 413 1 428 -18 q 399 46 399 19 q 415 158 399 85 l 413 161 q 278 15 343 56 q 165 -15 228 -15 q 50 39 88 -15 q 21 149 21 82 q 158 458 21 303 q 422 613 296 613 q 496 586 474 613 q 515 536 508 571 l 518 539 l 578 760 q 590 808 582 774 q 599 853 599 842 q 583 885 599 878 q 513 893 568 893 l 513 917 q 619 929 571 922 q 725 949 668 936 l 732 942 q 647 618 701 818 q 551 267 599 440 q 504 86 504 94 q 511 64 504 72 q 529 56 518 56 q 643 154 557 56 z "},"e":{"ha":617,"x_min":43,"x_max":572,"o":"m 211 350 l 188 289 q 404 385 328 318 q 481 525 481 453 q 469 565 481 549 q 432 581 457 581 q 314 514 376 581 q 211 350 251 447 m 497 151 l 514 135 q 381 28 476 81 q 233 -15 301 -15 q 83 50 133 -15 q 43 181 43 101 q 177 472 43 331 q 458 613 311 613 q 572 518 572 613 q 476 360 572 433 q 217 264 379 288 l 178 258 q 167 211 171 228 q 164 174 164 194 q 207 75 164 108 q 294 47 242 47 q 397 78 344 47 q 497 151 432 99 z "},"f":{"ha":386,"x_min":-204,"x_max":589,"o":"m 49 550 l 58 594 l 186 594 q 274 813 232 743 q 467 942 353 942 q 565 907 532 942 q 589 851 589 882 q 572 813 589 831 q 532 796 554 796 q 491 813 503 796 q 479 849 479 831 q 486 876 479 865 q 493 894 493 888 q 461 911 493 911 q 339 779 388 911 q 293 594 314 711 l 443 594 l 435 550 l 283 550 l 183 106 q 54 -207 135 -110 q -96 -287 -11 -287 q -162 -271 -135 -287 q -204 -206 -199 -249 q -199 -176 -203 -186 q -154 -146 -186 -146 q -117 -160 -136 -146 q -99 -197 -99 -174 q -105 -221 -99 -211 q -111 -236 -111 -231 q -85 -258 -111 -258 q 13 -167 -28 -258 q 51 -33 35 -115 l 174 550 l 49 550 z "},"g":{"ha":694,"x_min":11,"x_max":656,"o":"m 656 563 l 656 508 l 586 508 q 599 426 599 468 q 518 279 599 349 q 344 210 438 210 q 317 213 335 210 q 289 215 299 215 q 257 194 275 215 q 239 160 239 174 q 387 83 239 139 q 535 -83 535 28 q 456 -230 535 -174 q 236 -286 376 -286 q 67 -237 129 -286 q 11 -132 11 -194 q 174 54 11 -53 q 149 76 156 68 q 136 110 136 92 q 171 171 136 139 q 243 225 192 190 q 157 290 181 253 q 133 376 133 326 q 228 553 133 485 q 408 613 310 613 q 474 606 449 613 q 525 588 500 600 q 551 572 538 581 q 571 563 565 563 l 656 563 m 451 -124 q 424 -56 451 -82 q 375 -25 408 -40 q 284 11 357 -17 q 204 39 211 39 q 174 19 200 39 q 144 -3 147 0 q 94 -68 107 -35 q 88 -121 88 -87 q 136 -220 88 -185 q 258 -256 185 -256 q 400 -217 349 -256 q 451 -124 451 -179 m 489 488 q 471 558 489 533 q 410 582 453 582 q 286 500 336 582 q 242 347 242 428 q 262 268 242 297 q 328 239 282 239 q 442 317 394 239 q 489 488 489 394 z "},"h":{"ha":694,"x_min":26,"x_max":664,"o":"m 646 163 l 664 146 q 579 40 613 71 q 463 -12 522 -12 q 416 5 432 -12 q 400 51 400 22 q 437 214 400 74 q 514 504 474 354 q 503 532 514 522 q 474 542 492 542 q 381 488 439 542 q 260 346 324 435 q 175 163 208 267 q 131 0 164 125 l 26 0 l 210 696 q 233 789 226 760 q 247 854 247 843 q 231 882 247 874 q 190 890 215 890 l 154 889 l 154 911 q 372 949 265 924 l 379 942 l 215 332 l 218 329 q 342 496 278 426 q 528 613 447 613 q 586 597 564 613 q 622 513 622 572 q 566 287 622 485 q 510 79 510 89 q 532 53 510 53 q 593 99 554 53 q 646 163 621 131 z "},"i":{"ha":386,"x_min":68,"x_max":367,"o":"m 308 158 l 326 143 q 239 33 278 69 q 133 -15 186 -15 q 76 18 92 -15 q 68 71 68 38 q 123 307 68 108 q 178 519 178 506 q 163 549 178 543 q 90 556 147 556 l 90 578 q 203 593 121 578 q 313 613 286 608 l 317 610 l 194 163 q 181 114 190 147 q 172 71 172 81 q 194 50 172 50 q 236 74 210 50 q 308 158 268 103 m 367 832 q 349 784 367 807 q 299 761 331 761 q 251 779 271 761 q 232 833 232 797 q 251 888 232 868 q 297 908 269 908 q 347 883 328 908 q 367 832 367 858 z "},"j":{"ha":386,"x_min":-172,"x_max":383,"o":"m 82 -4 l 182 401 q 203 519 207 501 q 194 547 203 539 q 149 557 185 554 l 101 556 l 101 578 q 169 584 129 578 q 338 613 210 590 l 342 610 l 197 39 q 91 -208 154 -128 q -64 -287 28 -287 q -135 -269 -106 -287 q -172 -199 -172 -246 q -157 -161 -172 -178 q -115 -144 -142 -144 q -77 -159 -94 -144 q -60 -194 -60 -174 q -69 -223 -60 -211 q -78 -240 -78 -235 q -50 -256 -78 -256 q 32 -171 -4 -256 q 82 -4 53 -119 m 383 832 q 365 784 383 807 q 315 761 347 761 q 268 779 288 761 q 249 833 249 797 q 267 888 249 868 q 314 908 286 908 q 364 883 344 908 q 383 832 383 858 z "},"k":{"ha":617,"x_min":19,"x_max":640,"o":"m 575 151 l 596 136 q 522 24 554 57 q 442 -15 485 -15 q 332 99 390 -15 q 289 197 324 115 q 249 294 254 279 l 190 250 l 124 0 l 19 0 l 196 671 q 222 769 214 735 q 242 854 240 836 q 215 883 242 878 q 147 889 189 889 l 147 911 q 364 949 256 924 l 371 942 l 206 313 l 208 310 q 364 433 336 410 q 463 546 463 518 q 442 567 463 563 q 386 572 421 572 l 386 594 l 640 594 l 640 572 q 531 529 592 572 q 328 358 483 496 q 433 119 407 171 q 490 57 465 57 q 539 89 517 57 q 575 151 561 126 z "},"l":{"ha":386,"x_min":57,"x_max":388,"o":"m 317 171 l 335 158 q 235 32 275 69 q 124 -15 183 -15 q 70 9 83 -15 q 57 71 57 33 q 107 273 57 85 q 208 652 157 461 q 258 854 258 843 q 232 883 258 878 q 164 889 206 889 l 164 911 q 381 949 272 924 l 388 942 l 178 138 q 171 107 174 118 q 164 72 164 78 q 185 44 164 44 q 317 171 218 44 z "},"m":{"ha":1003,"x_min":17,"x_max":978,"o":"m 957 163 l 978 146 l 971 136 q 883 35 924 69 q 774 -12 828 -12 q 722 14 736 -12 q 715 56 715 28 q 769 285 715 75 q 824 508 824 494 q 794 540 824 540 q 690 471 757 540 q 594 350 633 411 q 519 194 549 278 q 464 0 499 135 l 360 0 q 439 292 411 186 q 492 503 492 488 q 483 534 492 528 q 461 540 475 540 q 322 432 413 540 q 256 344 282 383 q 188 206 219 289 q 121 0 165 144 l 17 0 q 117 366 81 232 q 153 514 153 500 q 135 542 153 536 q 64 547 118 547 l 64 569 l 286 613 l 290 610 l 213 332 l 215 329 q 338 496 274 424 q 517 613 442 613 q 599 522 599 613 q 581 442 599 508 q 547 332 563 376 l 550 329 q 703 531 626 456 q 851 613 786 613 q 911 588 889 613 q 933 519 933 563 q 899 365 933 494 q 821 81 860 222 q 825 58 821 64 q 842 53 829 53 q 889 83 860 53 q 957 163 913 107 z "},"n":{"ha":694,"x_min":19,"x_max":658,"o":"m 639 163 l 658 144 q 588 54 607 75 q 465 -12 526 -12 q 410 8 422 -12 q 399 69 399 29 q 450 275 399 83 q 501 497 501 467 q 467 542 501 542 q 358 472 422 542 q 263 344 313 422 q 190 207 218 278 q 124 0 171 158 l 19 0 q 74 196 31 40 q 129 400 111 329 q 156 511 156 500 q 138 538 156 529 q 67 547 121 547 l 67 569 l 292 613 l 296 610 l 207 319 l 210 317 q 344 503 286 438 q 518 613 442 613 q 614 521 614 613 q 558 292 614 489 q 503 76 503 94 q 514 57 503 64 q 525 53 517 56 q 572 83 543 53 q 639 163 596 108 z "},"o":{"ha":694,"x_min":38,"x_max":650,"o":"m 446 613 q 608 544 556 613 q 650 407 650 490 q 529 132 650 269 q 247 -15 400 -15 q 90 40 142 -15 q 38 185 38 94 q 166 476 38 339 q 446 613 294 613 m 436 583 q 238 425 328 583 q 154 143 154 279 q 183 49 154 83 q 265 14 213 14 q 458 176 374 14 q 533 450 533 321 q 508 545 533 507 q 436 583 483 583 z "},"p":{"ha":694,"x_min":-104,"x_max":651,"o":"m 526 435 q 503 526 526 499 q 435 553 481 553 q 332 508 385 553 q 252 393 279 464 q 194 212 225 322 q 163 63 163 101 q 183 24 163 38 q 232 11 203 11 q 443 161 350 11 q 526 435 526 296 m 78 560 l 75 582 l 290 613 q 294 594 297 604 l 257 465 l 260 463 q 342 556 300 521 q 486 613 411 613 q 615 560 574 613 q 651 431 651 514 q 517 128 651 271 q 238 -15 383 -15 q 143 8 189 -15 q 113 -112 126 -57 q 92 -219 92 -200 q 122 -258 92 -249 q 181 -264 140 -264 l 181 -285 l -104 -285 l -104 -262 q -35 -239 -56 -262 q -11 -181 -22 -224 q 51 64 10 -93 q 129 360 117 310 q 168 521 168 510 q 151 550 168 539 q 110 561 135 561 l 78 560 z "},"q":{"ha":694,"x_min":35,"x_max":671,"o":"m 543 -265 l 543 -290 l 208 -290 l 208 -268 q 297 -254 269 -268 q 339 -194 325 -240 l 458 201 l 456 204 q 303 28 364 71 q 178 -15 243 -15 q 69 33 103 -15 q 35 158 35 81 q 169 458 35 304 q 439 613 304 613 q 517 586 490 613 q 547 531 535 568 l 569 592 l 671 592 l 443 -210 q 440 -225 440 -221 q 478 -261 440 -253 q 543 -265 497 -265 m 154 161 q 175 87 154 115 q 232 58 196 58 q 435 222 335 58 q 528 490 528 374 q 504 559 528 536 q 444 582 481 582 q 253 434 351 582 q 154 161 154 286 z "},"r":{"ha":540,"x_min":63,"x_max":572,"o":"m 168 0 l 63 0 l 175 406 q 192 474 186 446 q 197 517 197 503 q 184 549 197 540 q 147 558 171 558 q 121 556 133 558 q 101 551 108 553 l 101 575 q 211 593 151 582 q 317 613 306 611 l 321 610 l 253 333 l 256 331 l 267 358 q 369 519 314 451 q 506 613 446 613 q 553 596 533 613 q 572 544 572 579 q 546 482 572 499 q 507 472 531 472 q 461 497 474 472 q 435 522 449 522 q 375 470 415 522 q 298 349 335 418 q 237 212 261 279 q 168 0 213 144 z "},"s":{"ha":540,"x_min":22,"x_max":508,"o":"m 50 203 l 72 203 q 106 86 85 126 q 217 14 143 14 q 296 53 269 14 q 317 126 317 83 q 234 288 317 171 q 151 458 151 404 q 179 551 151 511 q 318 613 222 613 q 406 597 353 613 q 450 589 435 589 q 474 596 465 589 q 489 614 482 603 l 508 614 l 481 421 l 458 421 q 425 531 453 490 q 328 581 392 581 q 279 567 297 581 q 253 500 253 546 q 338 347 253 460 q 422 171 422 235 q 349 21 422 69 q 215 -15 293 -15 q 129 3 201 -15 q 78 11 96 11 q 61 7 67 11 q 44 -18 56 3 l 22 -18 l 50 203 z "},"t":{"ha":386,"x_min":51,"x_max":411,"o":"m 411 594 l 404 550 l 288 550 l 165 88 l 164 76 q 186 53 164 53 q 239 90 204 53 q 297 163 251 104 l 315 153 q 218 29 257 64 q 118 -15 169 -15 q 75 -4 92 -15 q 51 40 51 11 q 61 88 51 50 q 83 168 71 125 l 183 550 l 81 550 q 83 572 78 564 q 113 589 88 579 q 154 607 146 603 q 230 663 188 625 q 306 742 272 700 q 315 753 310 747 q 329 758 321 760 q 339 754 336 761 q 339 738 342 747 l 300 594 l 411 594 z "},"u":{"ha":694,"x_min":58,"x_max":660,"o":"m 640 163 l 660 150 q 555 20 593 53 q 467 -12 517 -12 q 411 15 426 -12 q 401 60 401 33 q 419 153 401 76 q 461 315 438 229 q 361 160 383 190 q 254 35 301 75 q 135 -15 194 -15 q 77 3 96 -15 q 58 67 58 22 q 111 300 58 100 q 164 515 164 500 q 147 549 164 543 q 81 556 129 556 l 81 575 q 289 613 185 588 l 293 610 l 167 106 q 169 73 163 88 q 196 58 175 58 q 322 164 242 58 q 391 261 354 206 q 455 374 428 317 q 543 600 482 431 l 646 600 l 536 185 q 522 129 533 174 q 510 75 510 85 q 526 53 510 53 q 589 100 547 53 q 640 163 608 122 z "},"v":{"ha":617,"x_min":29,"x_max":592,"o":"m 29 560 l 29 578 q 153 600 106 589 q 206 613 179 606 q 219 610 217 613 q 228 585 222 607 q 275 335 263 433 q 288 97 288 238 l 331 142 q 456 304 396 210 q 521 458 521 408 q 492 507 521 482 q 463 572 463 532 q 477 601 463 589 q 513 613 492 613 q 570 588 549 613 q 592 525 592 564 q 483 283 592 442 q 339 101 411 178 q 261 18 267 24 q 201 -25 219 -25 q 191 -16 193 -25 q 189 17 189 -7 q 179 227 189 104 q 157 423 169 350 q 138 514 144 496 q 65 561 121 561 q 29 560 43 561 z "},"w":{"ha":926,"x_min":22,"x_max":900,"o":"m 22 560 l 22 579 q 110 593 82 588 q 199 613 154 603 q 210 601 206 613 q 225 535 215 590 q 253 328 242 442 q 264 179 264 215 l 532 599 q 549 611 539 611 q 560 601 554 611 l 604 103 q 718 247 681 197 q 801 369 776 324 q 833 461 833 426 q 803 515 833 488 q 774 564 774 542 q 786 599 774 585 q 826 613 799 613 q 881 590 863 613 q 900 535 900 567 q 785 285 900 457 q 621 68 708 171 q 574 10 597 39 q 532 -25 544 -25 q 517 -12 519 -25 q 515 17 515 1 l 475 456 l 351 243 q 226 19 289 131 q 186 -25 200 -25 q 172 -4 175 -25 q 168 40 168 17 l 163 163 q 154 302 163 226 q 133 453 146 378 q 108 544 121 528 q 50 561 96 561 l 22 560 z "},"x":{"ha":617,"x_min":-37,"x_max":621,"o":"m 558 154 l 578 143 q 468 4 513 38 q 407 -15 442 -15 q 359 4 376 -15 q 328 78 342 24 l 286 244 q 192 119 235 175 q 114 26 149 64 q 77 -6 94 4 q 31 -15 60 -15 q -20 1 -3 -15 q -37 44 -37 17 q -25 78 -37 64 q 10 92 -12 92 q 53 78 26 92 q 90 65 79 65 q 143 109 108 65 q 275 294 178 153 q 251 399 275 303 q 226 499 239 449 q 214 538 217 531 q 171 561 203 561 q 94 546 156 561 l 89 567 q 172 594 131 581 q 263 613 232 613 q 303 597 290 613 q 339 490 322 574 l 354 414 q 458 556 417 514 q 564 613 514 613 q 603 599 586 613 q 621 563 621 586 q 609 526 621 542 q 574 511 597 511 q 535 523 556 511 q 500 535 514 535 q 418 451 475 535 q 365 367 400 424 q 391 241 365 347 q 422 114 417 135 q 433 82 428 93 q 464 61 446 61 q 506 92 481 61 q 558 154 532 122 z "},"y":{"ha":617,"x_min":-33,"x_max":592,"o":"m 21 556 l 21 579 q 106 593 63 586 q 221 613 214 613 q 279 475 233 613 q 339 261 325 338 l 367 100 q 474 288 432 207 q 536 458 536 410 q 499 508 536 486 q 461 564 461 531 q 474 597 461 582 q 513 613 488 613 q 571 589 550 613 q 592 526 592 565 q 485 242 592 444 q 256 -111 378 40 q 38 -286 115 -286 q -14 -270 6 -286 q -33 -224 -33 -254 q -18 -186 -33 -201 q 19 -171 -3 -171 q 68 -190 42 -171 q 104 -210 94 -210 q 139 -196 121 -210 q 192 -142 157 -182 q 251 -68 233 -93 q 285 4 285 -21 q 253 177 285 42 q 203 375 222 313 q 165 489 176 464 q 68 561 133 561 q 21 556 43 561 z "},"z":{"ha":540,"x_min":-3,"x_max":528,"o":"m 113 429 l 90 435 l 133 594 l 528 594 l 528 579 l 125 101 q 226 60 190 88 q 313 -37 253 39 q 358 -78 336 -68 q 389 -83 371 -83 q 416 -78 404 -83 q 428 -61 428 -74 q 422 -44 428 -56 q 408 0 408 -18 q 457 43 408 43 q 485 35 472 43 q 504 -8 504 21 q 465 -81 504 -49 q 374 -112 426 -112 q 221 -53 321 -112 q 72 7 121 7 q 10 -18 39 7 l -3 -6 l 428 511 l 225 511 q 161 500 179 511 q 113 429 133 483 z "},"{":{"ha":556,"x_min":71,"x_max":565,"o":"m 565 954 l 561 939 q 460 881 494 924 q 410 767 431 844 l 347 533 q 297 417 326 453 q 194 356 263 372 q 239 326 228 338 q 267 264 267 300 q 254 187 267 240 q 221 60 242 133 q 190 -60 213 29 q 175 -133 175 -119 q 193 -199 175 -178 q 249 -231 211 -221 l 244 -246 q 110 -219 149 -246 q 71 -132 71 -192 q 117 63 71 -100 q 163 267 163 225 q 149 321 163 301 q 90 354 135 340 q 188 406 160 372 q 236 513 217 440 l 303 760 q 403 919 333 876 q 565 954 458 954 z "},"|":{"ha":382,"x_min":146,"x_max":238,"o":"m 146 -25 l 146 925 l 238 925 l 238 -25 l 146 -25 z "},"}":{"ha":556,"x_min":-10,"x_max":485,"o":"m 319 196 l 253 -51 q 153 -211 222 -168 q -10 -246 97 -246 l -6 -231 q 96 -172 61 -215 q 146 -58 125 -136 l 208 175 q 258 292 229 256 q 361 353 293 336 q 317 382 328 371 q 289 444 289 408 q 301 522 289 468 q 335 649 314 575 q 365 768 343 679 q 381 842 381 828 q 363 908 381 886 q 307 939 344 929 l 311 954 q 446 927 407 954 q 485 840 485 900 q 439 646 485 808 q 393 442 393 483 q 407 388 393 407 q 465 354 421 368 q 367 302 396 336 q 319 196 339 268 z "},"~":{"ha":751,"x_min":56,"x_max":697,"o":"m 647 449 l 697 379 q 628 297 654 319 q 524 260 582 260 q 433 279 479 260 q 382 306 421 285 q 310 339 343 328 q 222 354 265 354 q 150 322 182 354 q 106 254 125 297 l 56 324 q 118 406 83 378 q 229 443 164 443 q 304 431 264 443 q 383 399 331 422 q 461 365 421 382 q 525 349 501 349 q 594 381 561 349 q 647 449 617 401 z "},"‚":{"ha":463,"x_min":61,"x_max":254,"o":"m 74 -179 l 61 -156 q 124 -108 103 -129 q 165 -35 165 -68 q 146 4 165 -14 q 103 75 103 46 q 122 122 103 104 q 172 140 142 140 q 231 112 207 140 q 254 40 254 83 q 194 -90 254 -25 q 74 -179 146 -144 z "},"ƒ":{"ha":694,"x_min":35,"x_max":704,"o":"m 625 572 l 615 531 l 446 531 l 388 110 q 303 -151 367 -50 q 146 -253 239 -253 q 64 -226 93 -253 q 35 -164 35 -200 q 63 -103 35 -121 q 97 -93 78 -93 q 136 -110 121 -93 q 151 -146 151 -126 q 142 -174 151 -157 q 132 -199 132 -190 q 158 -221 132 -221 q 240 -144 214 -221 q 275 54 258 -89 l 329 531 l 174 531 l 183 572 l 335 572 q 417 832 358 735 q 593 947 486 947 q 664 926 633 947 q 704 851 704 900 q 689 804 704 822 q 647 786 674 786 q 610 801 628 786 q 592 840 592 817 q 603 872 592 853 q 610 889 610 885 q 583 907 610 907 q 450 572 492 907 l 625 572 z "},"„":{"ha":772,"x_min":79,"x_max":563,"o":"m 92 -179 l 79 -156 q 142 -108 121 -129 q 183 -35 183 -68 q 164 4 183 -14 q 121 75 121 46 q 140 122 121 104 q 190 140 160 140 q 249 112 225 140 q 272 40 272 83 q 213 -90 272 -25 q 92 -179 164 -144 m 382 -179 l 369 -156 q 432 -108 411 -129 q 474 -35 474 -68 q 454 4 474 -14 q 411 75 411 46 q 431 122 411 104 q 481 140 450 140 q 539 112 515 140 q 563 40 563 83 q 503 -90 563 -25 q 382 -179 454 -144 z "},"…":{"ha":1235,"x_min":79,"x_max":1058,"o":"m 156 -15 q 107 1 128 -15 q 79 60 79 24 q 101 115 79 92 q 156 139 124 139 q 210 115 186 139 q 233 60 233 92 q 208 5 233 25 q 156 -15 182 -15 m 568 -15 q 519 1 540 -15 q 492 60 492 24 q 514 115 492 92 q 568 139 536 139 q 622 115 599 139 q 646 60 646 92 q 620 5 646 25 q 568 -15 594 -15 m 981 -15 q 932 1 953 -15 q 904 60 904 24 q 926 115 904 92 q 981 139 949 139 q 1035 115 1011 139 q 1058 60 1058 92 q 1033 5 1058 25 q 981 -15 1007 -15 z "},"†":{"ha":694,"x_min":140,"x_max":678,"o":"m 249 -221 l 218 -221 q 293 276 293 158 q 290 318 293 293 q 286 364 288 343 q 389 592 364 446 q 292 578 335 592 q 203 549 249 564 q 140 608 140 549 q 204 663 140 663 q 300 635 217 663 q 396 621 342 621 q 410 738 410 694 q 403 798 410 764 q 397 847 397 832 q 413 904 397 883 q 465 925 429 925 q 521 864 521 925 q 468 746 521 838 q 422 621 436 690 q 517 633 479 621 q 614 663 604 663 q 678 608 678 663 q 662 563 678 578 q 615 549 646 549 q 565 561 596 549 q 418 592 490 592 q 408 534 410 554 q 406 478 406 514 q 410 409 406 436 q 428 358 415 382 q 364 224 399 315 q 315 71 329 133 l 249 -221 z "},"‡":{"ha":694,"x_min":31,"x_max":682,"o":"m 392 593 l 367 593 q 264 564 336 593 q 207 550 229 550 q 160 564 181 550 q 140 608 140 578 q 158 648 140 632 q 201 664 175 664 q 301 636 214 664 q 397 622 346 622 q 406 672 403 650 q 410 728 410 693 q 405 792 410 761 q 397 847 400 824 q 416 902 397 879 q 464 925 435 925 q 503 910 485 925 q 521 864 521 896 q 464 739 521 840 q 425 622 433 685 q 519 635 479 622 q 621 664 613 664 q 665 649 649 664 q 682 608 682 633 q 661 565 682 581 q 615 550 640 550 q 539 572 589 550 q 456 593 489 593 l 419 593 q 410 534 415 574 q 404 469 404 494 q 410 424 404 449 q 426 360 415 400 q 356 250 385 321 q 321 133 336 203 l 347 133 q 450 163 378 133 q 507 176 485 176 q 553 163 533 176 q 574 118 574 149 q 556 78 574 94 q 513 63 539 63 q 413 90 500 63 q 317 104 368 104 q 307 52 311 79 q 303 -1 303 25 q 307 -66 303 -35 q 315 -121 311 -97 q 297 -176 315 -153 q 249 -199 278 -199 q 213 -186 228 -199 q 192 -137 192 -169 q 249 -12 192 -112 q 288 104 279 40 q 193 92 233 104 q 92 63 100 63 q 47 78 64 63 q 31 118 31 93 q 51 161 31 146 q 97 176 72 176 q 174 155 124 176 q 257 133 224 133 l 293 133 q 303 192 297 153 q 308 257 308 232 q 303 302 308 278 q 286 367 297 326 q 357 476 328 406 q 392 593 376 524 z "},"ˆ":{"ha":463,"x_min":126,"x_max":535,"o":"m 413 918 l 535 683 l 485 683 l 371 828 l 181 683 l 126 683 l 344 918 l 413 918 z "},"‰":{"ha":1389,"x_min":35,"x_max":1403,"o":"m 814 981 l 215 -25 l 151 -25 l 688 874 l 685 876 q 633 835 663 850 q 514 810 585 810 q 483 811 492 810 q 425 829 475 813 q 428 809 426 818 q 431 782 431 800 q 364 553 431 654 q 200 453 297 453 q 86 503 133 453 q 35 653 35 557 q 110 842 35 753 q 301 939 192 939 q 397 892 343 939 q 528 846 450 846 q 657 892 600 846 q 753 981 682 911 l 814 981 m 133 599 q 152 520 133 550 q 217 490 171 490 q 346 585 290 490 q 397 767 397 674 q 390 833 397 821 q 349 863 383 846 q 319 885 338 867 q 294 903 300 903 q 251 876 282 903 q 196 807 221 849 q 150 696 167 758 q 133 599 133 633 m 508 165 q 591 370 508 282 q 769 458 674 458 q 849 436 818 458 q 903 301 903 397 q 833 68 903 163 q 676 -26 763 -26 q 571 14 618 -26 q 508 165 508 67 m 786 419 q 657 303 714 419 q 608 115 608 203 q 628 38 608 65 q 683 11 649 11 q 825 119 769 11 q 871 290 871 208 q 846 385 871 351 q 786 419 821 419 m 1008 165 q 1091 370 1008 282 q 1269 458 1174 458 q 1349 436 1318 458 q 1403 301 1403 397 q 1333 68 1403 163 q 1176 -26 1263 -26 q 1071 14 1118 -26 q 1008 165 1008 67 m 1286 419 q 1157 303 1214 419 q 1108 115 1108 203 q 1128 38 1108 65 q 1183 11 1149 11 q 1325 119 1269 11 q 1371 290 1371 208 q 1346 385 1371 351 q 1286 419 1321 419 z "},"Š":{"ha":694,"x_min":24,"x_max":722,"o":"m 650 650 l 625 654 q 601 796 625 747 q 451 879 561 879 q 347 844 389 879 q 304 740 304 808 q 327 651 304 688 q 443 522 350 614 q 567 374 536 429 q 599 250 599 319 q 528 64 599 142 q 317 -25 447 -25 q 192 0 263 -25 q 103 25 121 25 q 69 16 82 25 q 49 -21 57 7 l 24 -21 l 71 289 l 99 286 l 96 257 q 151 92 96 161 q 299 24 207 24 q 438 89 388 24 q 478 207 478 142 q 447 313 478 267 q 381 388 438 326 q 210 584 239 539 q 182 697 182 629 q 252 860 182 796 q 421 925 322 925 q 490 922 468 925 q 542 908 513 918 q 583 894 571 897 q 613 890 594 890 q 674 926 650 890 l 706 926 l 650 650 m 722 1213 l 496 978 l 432 978 l 299 1213 l 350 1213 l 475 1067 l 672 1213 l 722 1213 z "},"‹":{"ha":463,"x_min":71,"x_max":390,"o":"m 71 300 l 71 313 q 226 435 149 374 q 336 529 308 507 q 379 560 374 560 q 390 549 390 560 q 349 485 390 532 q 174 301 318 450 q 246 157 214 222 q 288 63 288 72 q 276 51 283 51 q 239 86 268 51 q 164 183 201 135 q 113 244 140 210 q 71 300 79 286 z "},"Œ":{"ha":1311,"x_min":68,"x_max":1339,"o":"m 1339 907 l 1296 699 l 1274 699 q 1253 822 1274 796 q 1107 861 1222 861 l 974 861 q 938 849 949 861 q 922 817 928 838 l 833 501 q 1041 522 999 501 q 1125 633 1083 542 l 1150 628 l 1058 308 l 1031 311 l 1039 369 q 1013 434 1039 417 q 907 451 986 451 l 821 456 l 749 192 q 732 122 736 140 q 728 97 728 104 q 756 55 728 64 q 860 46 783 46 q 1103 107 1011 46 q 1226 239 1157 143 l 1249 231 l 1158 0 l 678 0 q 610 -1 649 0 q 525 -6 571 -3 q 443 -8 501 -6 q 375 -11 385 -11 q 159 81 250 -11 q 68 306 68 174 q 234 741 68 557 q 614 925 400 925 q 669 922 635 925 q 731 916 704 919 q 783 910 758 913 q 826 907 808 907 l 1339 907 m 636 276 l 738 649 q 758 721 750 692 q 765 767 765 750 q 726 850 765 819 q 619 881 686 881 q 328 676 450 881 q 218 288 218 493 q 267 97 218 161 q 413 33 315 33 q 564 97 514 33 q 636 276 600 143 z "},"‘":{"ha":463,"x_min":238,"x_max":431,"o":"m 418 925 l 431 901 q 368 854 389 875 q 326 781 326 814 q 346 742 326 760 q 389 671 389 700 q 369 624 389 642 q 319 606 350 606 q 261 634 285 606 q 238 706 238 663 q 297 836 238 771 q 418 925 346 890 z "},"’":{"ha":463,"x_min":210,"x_max":403,"o":"m 222 606 l 210 629 q 272 676 251 656 q 314 750 314 717 q 294 789 314 771 q 251 860 251 831 q 271 907 251 889 q 321 925 290 925 q 379 897 356 925 q 403 825 403 868 q 343 694 403 760 q 222 606 294 640 z "},"“":{"ha":772,"x_min":231,"x_max":714,"o":"m 411 925 l 424 901 q 361 854 382 875 q 319 781 319 814 q 339 742 319 760 q 382 671 382 700 q 363 624 382 642 q 313 606 343 606 q 254 634 278 606 q 231 706 231 663 q 290 836 231 771 q 411 925 339 890 m 701 925 l 714 901 q 651 854 672 875 q 610 781 610 814 q 629 742 610 760 q 672 671 672 700 q 653 624 672 642 q 603 606 633 606 q 544 634 568 606 q 521 706 521 663 q 581 836 521 771 q 701 925 629 890 z "},"”":{"ha":772,"x_min":210,"x_max":693,"o":"m 222 606 l 210 629 q 272 676 251 656 q 314 750 314 717 q 294 789 314 771 q 251 860 251 831 q 271 907 251 889 q 321 925 290 925 q 379 897 356 925 q 403 825 403 868 q 343 694 403 760 q 222 606 294 640 m 513 606 l 500 629 q 563 676 542 656 q 604 750 604 717 q 585 789 604 771 q 542 860 542 831 q 561 907 542 889 q 611 925 581 925 q 669 897 646 925 q 693 825 693 868 q 633 694 693 760 q 513 606 585 640 z "},"•":{"ha":486,"x_min":56,"x_max":431,"o":"m 431 453 q 376 320 431 375 q 243 265 321 265 q 110 319 164 265 q 56 453 56 374 q 109 585 56 531 q 243 640 163 640 q 376 586 322 640 q 431 453 431 532 z "},"–":{"ha":694,"x_min":-8,"x_max":701,"o":"m 701 338 l 690 274 l -8 274 l 3 338 l 701 338 z "},"—":{"ha":1235,"x_min":-8,"x_max":1242,"o":"m 1242 338 l 1231 274 l -8 274 l 3 338 l 1242 338 z "},"˜":{"ha":463,"x_min":139,"x_max":593,"o":"m 554 867 l 593 867 q 545 760 582 799 q 460 722 508 722 q 418 731 444 722 q 358 753 392 740 q 288 777 310 771 q 251 783 267 783 q 206 766 224 783 q 179 718 188 749 l 139 718 q 175 811 156 783 q 279 865 211 865 q 389 835 319 865 q 481 806 458 806 q 533 825 515 806 q 554 867 544 838 z "},"™":{"ha":1361,"x_min":42,"x_max":1329,"o":"m 331 879 l 331 449 q 338 389 331 397 q 400 374 346 381 l 400 346 l 163 346 l 163 374 q 224 389 215 379 q 232 449 232 399 l 232 879 l 164 879 q 102 853 124 879 q 69 785 81 828 l 42 785 l 42 907 l 521 907 l 521 785 l 493 785 q 464 851 482 829 q 400 879 440 879 l 331 879 m 924 343 l 717 768 l 714 464 q 728 397 714 415 q 788 374 742 378 l 788 346 l 606 346 l 606 374 q 664 397 650 378 q 678 464 678 417 l 678 810 q 582 879 650 879 l 582 907 l 750 907 l 964 478 l 1186 907 l 1329 907 l 1329 879 q 1269 860 1286 879 q 1251 803 1251 842 l 1251 449 q 1259 389 1251 397 q 1321 374 1267 381 l 1321 346 l 1085 346 l 1085 374 q 1145 388 1138 379 q 1153 449 1153 397 l 1153 771 l 939 343 l 924 343 z "},"š":{"ha":540,"x_min":22,"x_max":631,"o":"m 50 203 l 72 203 q 106 86 85 126 q 217 14 143 14 q 296 53 269 14 q 317 126 317 83 q 234 288 317 171 q 151 458 151 404 q 179 551 151 511 q 318 613 222 613 q 406 597 353 613 q 450 589 435 589 q 474 596 465 589 q 489 614 482 603 l 508 614 l 481 421 l 458 421 q 425 531 453 490 q 328 581 392 581 q 279 567 297 581 q 253 500 253 546 q 338 347 253 460 q 422 171 422 235 q 349 21 422 69 q 215 -15 293 -15 q 129 3 201 -15 q 78 11 96 11 q 61 7 67 11 q 44 -18 56 3 l 22 -18 l 50 203 m 631 918 l 404 683 l 340 683 l 207 918 l 258 918 l 383 772 l 581 918 l 631 918 z "},"›":{"ha":463,"x_min":72,"x_max":392,"o":"m 392 311 l 392 299 q 236 176 314 238 q 126 82 154 104 q 83 51 89 51 q 72 63 72 51 q 114 126 72 79 q 289 310 144 161 q 217 454 249 389 q 175 549 175 539 q 186 560 179 560 q 224 525 194 560 q 299 428 261 476 q 350 367 322 401 q 392 311 383 325 z "},"œ":{"ha":926,"x_min":28,"x_max":897,"o":"m 824 146 l 839 131 q 728 38 782 72 q 565 -17 643 -17 q 479 8 517 -17 q 421 78 442 33 q 342 14 374 32 q 221 -15 289 -15 q 96 31 150 -15 q 28 194 28 89 q 152 476 28 339 q 404 613 276 613 q 510 581 468 613 q 564 501 551 550 q 697 596 638 572 q 793 613 738 613 q 872 585 846 613 q 897 515 897 558 q 875 444 897 485 q 810 374 853 404 q 672 306 750 331 q 538 268 604 286 q 524 219 531 257 q 518 156 518 181 q 558 64 518 94 q 619 42 588 42 q 718 71 667 42 q 824 146 749 89 m 239 13 q 421 228 347 13 q 476 482 476 389 q 463 546 476 524 q 389 581 442 581 q 218 426 299 581 q 143 153 143 283 q 167 47 143 81 q 239 13 190 13 m 544 299 q 631 326 613 319 q 718 374 679 344 q 790 461 768 413 q 806 522 806 494 q 758 578 806 578 q 638 498 701 578 q 544 299 575 418 z "},"Ÿ":{"ha":772,"x_min":108,"x_max":879,"o":"m 126 885 l 126 907 l 458 907 l 458 885 q 399 878 411 881 q 358 832 358 868 q 392 692 358 810 q 451 482 421 586 q 606 667 528 574 q 713 838 713 800 q 694 872 713 864 q 617 885 675 879 l 617 907 l 879 907 l 879 885 q 833 856 850 871 q 782 800 815 842 l 478 425 l 438 285 q 404 171 411 196 q 386 82 386 107 q 411 33 386 44 q 510 22 436 22 l 510 0 l 108 0 l 108 22 q 196 40 172 28 q 254 125 236 63 l 339 419 l 232 793 q 199 863 215 850 q 126 885 183 876 m 415 1136 q 459 1117 436 1136 q 482 1068 482 1099 q 463 1019 482 1039 q 414 1000 443 1000 q 365 1019 385 1000 q 346 1069 346 1039 q 368 1119 346 1101 q 415 1136 390 1136 m 693 1136 q 737 1117 714 1136 q 760 1068 760 1099 q 740 1019 760 1039 q 692 1000 721 1000 q 643 1019 663 1000 q 624 1069 624 1039 q 646 1119 624 1101 q 693 1136 668 1136 z "}," ":{"ha":694,"x_min":0,"x_max":0,"o":""},"¡":{"ha":540,"x_min":82,"x_max":447,"o":"m 311 396 l 335 390 q 235 -124 268 89 q 193 -256 219 -218 q 138 -285 172 -285 q 89 -256 101 -285 q 82 -215 82 -240 q 110 -100 82 -168 q 176 49 146 -19 q 260 260 206 117 q 311 396 299 364 m 447 581 q 429 538 447 558 q 375 511 407 511 q 322 533 344 511 q 299 585 299 554 q 322 635 299 614 q 376 657 344 657 q 429 634 411 657 q 447 581 447 611 z "},"¢":{"ha":694,"x_min":107,"x_max":656,"o":"m 575 778 l 517 611 q 626 572 589 611 q 656 500 656 542 q 636 454 656 472 q 590 436 617 436 q 535 488 535 436 q 545 528 535 508 q 556 556 556 547 q 541 576 556 568 q 507 583 526 583 l 317 40 q 353 35 329 35 q 464 69 410 35 q 551 147 504 96 l 574 133 q 485 43 528 75 q 313 -15 406 -15 l 299 -14 l 233 -199 l 190 -199 l 257 -10 q 153 47 190 3 q 107 204 107 101 q 219 472 107 346 q 475 611 331 597 l 533 778 l 575 778 m 281 57 l 464 579 q 288 426 358 557 q 226 204 226 313 q 281 57 226 97 z "},"£":{"ha":694,"x_min":14,"x_max":718,"o":"m 550 443 l 375 443 q 335 290 347 328 q 274 144 318 242 q 369 113 321 126 q 490 92 443 92 q 561 103 533 92 q 606 129 575 108 l 619 139 l 635 126 q 592 56 625 92 q 440 -8 532 -8 q 363 3 394 -8 q 238 79 308 21 q 185 22 204 39 q 107 -8 147 -8 q 39 15 64 -8 q 14 89 14 39 q 57 153 14 125 q 138 175 92 175 q 179 174 172 175 q 222 160 201 165 l 257 443 l 100 443 l 113 501 l 265 501 q 344 754 282 638 q 592 931 439 931 q 685 900 651 931 q 718 826 718 869 q 703 781 718 793 q 664 768 689 768 q 614 829 619 768 q 560 890 606 890 q 497 864 522 890 q 467 814 482 847 q 425 681 444 764 q 389 501 411 622 l 560 501 l 550 443 m 44 74 q 60 38 44 54 q 108 22 76 22 q 165 47 135 22 q 203 101 194 71 q 164 126 176 121 q 118 136 143 136 q 56 108 74 136 q 44 74 44 92 z "},"¤":{"ha":694,"x_min":-31,"x_max":725,"o":"m 349 661 q 203 599 263 661 q 143 453 143 536 q 202 303 143 365 q 349 242 261 242 q 493 304 435 242 q 551 453 551 367 q 493 600 551 539 q 349 661 435 661 m -31 143 l 106 276 q 64 357 79 313 q 49 453 49 401 q 65 548 49 501 q 106 626 81 594 l -31 763 l 39 829 l 172 696 q 253 735 207 721 q 349 750 299 750 q 444 735 397 750 q 522 696 492 721 l 658 829 l 725 763 l 592 626 q 631 549 617 593 q 646 453 646 504 q 631 358 646 404 q 592 276 617 313 l 725 143 l 658 74 l 522 210 q 445 169 490 185 q 349 153 400 153 q 253 169 299 153 q 172 210 207 185 l 39 74 l -31 143 z "},"¥":{"ha":694,"x_min":38,"x_max":838,"o":"m 633 253 l 383 253 q 354 158 360 178 q 340 82 340 107 q 365 33 340 44 q 468 22 390 22 l 468 0 l 72 0 l 78 22 q 164 40 140 28 q 229 125 207 63 l 267 253 l 38 253 l 54 308 l 282 308 l 314 419 l 310 433 l 83 433 l 100 489 l 294 489 l 207 793 q 172 863 192 850 q 85 885 151 876 l 85 907 l 417 907 l 417 885 q 337 874 361 885 q 313 832 313 864 q 344 697 313 808 q 407 482 376 586 q 563 667 485 574 q 671 838 671 801 q 652 872 671 864 q 575 885 633 879 l 575 907 l 838 907 l 838 885 q 788 856 804 869 q 736 800 771 843 l 485 489 l 694 489 l 678 433 l 442 433 l 433 422 l 400 308 l 650 308 l 633 253 z "},"¦":{"ha":382,"x_min":146,"x_max":238,"o":"m 146 -25 l 146 357 l 238 357 l 238 -25 l 146 -25 m 146 543 l 146 925 l 238 925 l 238 543 l 146 543 z "},"§":{"ha":694,"x_min":74,"x_max":640,"o":"m 376 681 l 547 472 q 582 414 567 449 q 604 313 604 364 q 560 188 604 238 q 446 139 517 139 q 417 140 422 139 q 394 149 411 142 l 392 144 q 444 74 433 92 q 479 -37 479 19 q 415 -173 479 -121 q 267 -225 350 -225 q 122 -176 178 -225 q 74 -79 74 -133 q 93 -18 74 -39 q 153 3 113 3 q 198 -11 179 3 q 217 -58 217 -25 q 188 -115 217 -96 q 158 -146 158 -135 q 187 -180 158 -164 q 253 -196 215 -196 q 360 -161 321 -196 q 399 -72 399 -126 q 387 -13 399 -39 q 329 64 375 13 l 224 185 q 125 392 125 299 q 168 519 125 471 q 272 568 211 568 q 310 564 290 568 q 346 553 331 560 l 349 557 q 278 658 301 613 q 256 750 256 704 q 316 879 256 833 q 460 925 376 925 q 592 885 544 925 q 640 788 640 846 q 620 730 640 749 q 568 711 600 711 q 521 731 538 711 q 504 772 504 750 q 536 828 504 799 q 551 853 551 842 q 528 883 551 869 q 472 896 506 896 q 382 871 417 896 q 340 779 340 840 q 349 726 340 750 q 376 681 358 703 m 204 447 q 288 272 204 375 q 432 168 372 168 q 489 189 463 168 q 524 265 524 217 q 511 328 524 297 q 444 433 493 371 q 362 517 396 496 q 294 539 328 539 q 232 514 260 539 q 204 447 204 489 z "},"¨":{"ha":463,"x_min":149,"x_max":563,"o":"m 218 842 q 262 823 239 842 q 285 774 285 804 q 265 725 285 744 q 217 706 246 706 q 168 725 188 706 q 149 775 149 744 q 171 824 149 807 q 218 842 193 842 m 496 842 q 540 823 517 842 q 563 774 563 804 q 543 725 563 744 q 494 706 524 706 q 446 725 465 706 q 426 775 426 744 q 449 824 426 807 q 496 842 471 842 z "},"©":{"ha":1056,"x_min":57,"x_max":999,"o":"m 999 449 q 863 113 999 251 q 531 -25 728 -25 q 194 113 331 -25 q 57 449 57 251 q 194 785 57 646 q 531 925 331 925 q 864 786 729 925 q 999 449 999 647 m 922 449 q 808 742 922 618 q 531 867 694 867 q 250 742 367 867 q 133 449 133 617 q 249 158 133 282 q 531 33 365 33 q 807 157 692 33 q 922 449 922 281 m 735 333 l 757 333 l 736 239 q 700 213 736 222 q 638 197 678 204 q 556 189 599 189 q 351 251 426 189 q 265 461 265 322 q 336 636 265 561 q 565 726 421 726 q 647 718 610 726 q 706 701 663 715 q 735 672 735 692 l 735 576 l 713 576 q 675 660 707 629 q 561 699 636 699 q 419 635 467 699 q 372 467 372 572 q 417 288 372 351 q 568 217 467 217 q 672 249 631 217 q 735 333 713 282 z "},"ª":{"ha":383,"x_min":58,"x_max":489,"o":"m 415 935 l 471 939 l 489 938 q 453 808 472 878 q 415 663 418 683 q 410 628 411 642 q 413 615 408 615 q 442 633 422 615 q 476 669 451 642 l 486 656 q 363 564 404 564 q 328 575 338 564 q 318 600 318 586 q 320 629 318 619 q 338 675 322 639 q 253 588 292 613 q 165 564 214 564 q 75 603 101 564 q 58 663 58 628 q 143 847 58 756 q 317 939 228 939 q 377 927 356 939 q 401 896 399 915 l 413 932 l 415 935 m 374 860 q 367 897 374 879 q 349 914 360 914 q 217 821 281 914 q 160 674 160 738 q 174 627 160 643 q 199 611 188 611 q 319 710 260 611 q 374 860 374 799 z "},"«":{"ha":694,"x_min":74,"x_max":618,"o":"m 74 300 l 74 313 q 229 435 151 374 q 339 529 311 507 q 382 560 376 560 q 393 549 393 560 q 351 485 393 532 q 176 301 321 450 q 249 157 217 222 q 290 63 290 72 q 279 51 286 51 q 242 86 271 51 q 167 183 204 135 q 115 244 143 210 q 74 300 82 286 m 299 300 l 299 313 q 454 435 376 374 q 564 529 536 507 q 607 560 601 560 q 618 549 618 560 q 576 485 618 532 q 401 301 546 450 q 474 157 442 222 q 515 63 515 72 q 504 51 511 51 q 467 86 496 51 q 392 183 429 135 q 340 244 368 210 q 299 300 307 286 z "},"¬":{"ha":938,"x_min":119,"x_max":819,"o":"m 728 150 l 728 444 l 119 444 l 119 536 l 819 536 l 819 150 l 728 150 z "},"­":{"ha":938,"x_min":119,"x_max":819,"o":"m 819 306 l 119 306 l 119 397 l 819 397 l 819 306 z "},"®":{"ha":1056,"x_min":57,"x_max":999,"o":"m 307 689 l 307 710 l 550 710 q 663 678 618 710 q 708 585 708 647 q 678 495 708 533 q 599 440 647 457 l 678 332 q 733 263 704 296 q 782 215 763 229 l 782 203 l 694 203 q 608 299 665 203 q 528 426 565 372 l 463 426 l 463 290 q 470 237 463 244 q 529 224 478 229 l 529 203 l 307 203 l 307 224 q 366 237 358 229 q 374 290 374 244 l 374 622 q 366 676 374 668 q 307 689 358 683 m 463 683 l 463 451 l 521 451 q 592 485 569 451 q 615 578 615 519 q 589 658 615 633 q 519 683 563 683 l 463 683 m 999 449 q 863 113 999 251 q 531 -25 728 -25 q 194 113 331 -25 q 57 449 57 251 q 194 785 57 646 q 531 925 331 925 q 864 786 729 925 q 999 449 999 647 m 922 449 q 808 742 922 618 q 531 867 694 867 q 250 742 367 867 q 133 449 133 617 q 249 158 133 282 q 531 33 365 33 q 807 157 692 33 q 922 449 922 281 z "},"¯":{"ha":463,"x_min":138,"x_max":571,"o":"m 571 810 l 556 739 l 138 739 l 153 810 l 571 810 z "},"°":{"ha":556,"x_min":140,"x_max":538,"o":"m 339 589 q 442 633 400 589 q 483 740 483 678 q 441 847 483 801 q 339 892 399 892 q 236 847 278 892 q 194 740 194 803 q 237 634 194 679 q 339 589 279 589 m 339 542 q 198 599 256 542 q 140 740 140 657 q 198 881 140 824 q 339 939 256 939 q 480 881 422 939 q 538 740 538 824 q 480 599 538 657 q 339 542 422 542 z "},"±":{"ha":938,"x_min":119,"x_max":819,"o":"m 119 0 l 119 92 l 819 92 l 819 0 l 119 0 m 424 483 l 424 703 l 515 703 l 515 483 l 819 483 l 819 392 l 515 392 l 515 169 l 424 169 l 424 392 l 119 392 l 119 483 l 424 483 z "},"²":{"ha":417,"x_min":46,"x_max":450,"o":"m 397 497 l 413 486 l 367 376 l 46 376 l 46 401 l 231 582 q 342 718 311 661 q 360 776 360 751 q 330 839 360 810 q 254 868 300 868 q 165 838 203 868 q 126 794 154 829 l 108 806 q 183 904 132 869 q 300 939 235 939 q 411 894 368 939 q 450 806 450 854 q 424 724 450 761 q 313 610 399 686 l 154 457 l 157 450 l 307 450 q 365 461 349 450 q 397 497 382 472 z "},"³":{"ha":417,"x_min":60,"x_max":471,"o":"m 207 844 l 193 854 q 252 915 210 890 q 335 939 294 939 q 430 913 389 939 q 471 838 471 886 q 438 765 471 793 q 331 713 404 738 l 336 710 q 399 661 379 692 q 418 583 418 631 q 356 443 418 504 q 164 372 283 372 q 92 382 115 372 q 60 426 60 396 q 99 465 60 458 q 142 450 118 465 q 215 415 197 415 q 283 440 250 415 q 331 538 331 476 q 282 651 331 617 q 174 679 243 679 l 174 692 q 306 731 253 704 q 378 821 378 767 q 356 876 378 858 q 310 894 335 894 q 243 875 274 894 q 207 844 236 869 z "},"´":{"ha":463,"x_min":250,"x_max":560,"o":"m 536 833 l 299 686 l 250 686 l 475 908 q 510 922 489 922 q 546 908 532 922 q 560 874 560 894 q 536 833 560 849 z "},"µ":{"ha":694,"x_min":-42,"x_max":690,"o":"m 690 594 l 582 128 q 574 81 574 100 q 608 42 574 42 q 644 49 625 42 q 688 78 663 57 l 683 65 q 606 3 640 19 q 531 -14 571 -14 q 456 65 456 -14 l 460 107 q 359 19 415 53 q 249 -14 303 -14 q 172 3 204 -14 q 108 83 125 28 q 104 44 106 67 q 103 1 103 21 q 103 -44 103 -21 q 104 -90 103 -67 q 89 -208 104 -158 q 6 -290 64 -290 q -31 -273 -21 -290 q -42 -226 -42 -256 q -24 -136 -42 -182 q 11 -64 -18 -122 q 40 11 31 -18 q 58 75 50 40 l 176 594 l 299 594 l 206 200 l 201 158 q 301 63 201 63 q 401 97 350 63 q 467 160 443 125 l 568 594 l 690 594 z "},"¶":{"ha":726,"x_min":76,"x_max":856,"o":"m 856 907 l 847 878 q 749 864 772 878 q 713 797 726 850 l 496 -15 q 483 -57 488 -42 q 475 -107 475 -87 q 518 -135 475 -128 q 575 -142 535 -137 l 568 -171 l 363 -171 l 640 878 l 560 878 l 282 -171 l 76 -171 l 83 -142 q 160 -133 151 -135 q 203 -107 194 -126 q 246 44 207 -99 q 340 393 339 390 q 181 440 233 393 q 128 560 128 486 q 149 688 128 621 q 210 801 169 754 q 315 879 256 856 q 499 907 385 907 l 856 907 m 354 422 l 464 878 q 310 793 371 878 q 256 683 276 750 q 235 565 235 615 q 261 471 235 510 q 354 422 293 422 z "},"·":{"ha":347,"x_min":97,"x_max":251,"o":"m 174 276 q 125 293 146 276 q 97 351 97 315 q 119 407 97 383 q 174 431 142 431 q 228 407 204 431 q 251 351 251 383 q 226 297 251 317 q 174 276 200 276 z "},"¸":{"ha":463,"x_min":-42,"x_max":253,"o":"m 29 -133 l 113 0 l 165 0 l 104 -92 q 142 -87 124 -87 q 221 -112 189 -87 q 253 -181 253 -137 q 194 -276 253 -244 q 83 -301 149 -301 q -42 -272 31 -301 l -18 -232 q 33 -248 13 -243 q 74 -253 54 -253 q 140 -229 124 -253 q 150 -192 150 -215 q 131 -151 150 -168 q 86 -135 111 -135 q 67 -137 78 -135 q 42 -144 57 -139 l 29 -133 z "},"¹":{"ha":417,"x_min":60,"x_max":393,"o":"m 311 399 l 311 376 l 60 376 l 60 399 q 119 407 113 404 q 150 433 144 414 l 275 829 l 282 857 q 276 875 282 869 q 257 883 271 881 l 206 882 l 206 908 q 312 926 240 913 q 386 939 383 939 q 393 931 393 939 q 389 910 393 924 l 269 529 q 243 428 243 444 q 260 404 243 410 q 311 399 278 399 z "},"º":{"ha":431,"x_min":93,"x_max":503,"o":"m 364 939 q 474 899 438 939 q 503 817 503 867 q 424 653 503 735 q 235 564 338 564 q 128 597 164 564 q 93 683 93 629 q 177 858 93 776 q 364 939 261 939 m 247 597 q 360 690 311 597 q 401 836 401 769 q 393 890 401 871 q 357 908 385 908 q 240 819 293 908 q 194 669 194 742 q 207 616 194 635 q 247 597 219 597 z "},"»":{"ha":694,"x_min":76,"x_max":621,"o":"m 621 311 l 621 299 q 465 176 543 238 q 356 82 383 104 q 313 51 318 51 q 301 63 301 51 q 343 126 301 79 q 518 310 374 161 q 446 454 478 389 q 404 549 404 539 q 415 560 408 560 q 453 525 424 560 q 528 428 490 476 q 579 367 551 401 q 621 311 613 325 m 396 311 l 396 299 q 240 176 318 238 q 131 82 158 104 q 88 51 93 51 q 76 63 76 51 q 118 126 76 79 q 293 310 149 161 q 221 454 253 389 q 179 549 179 539 q 190 560 183 560 q 228 525 199 560 q 303 428 265 476 q 354 367 326 401 q 396 311 388 325 z "},"¼":{"ha":1042,"x_min":46,"x_max":1022,"o":"m 900 456 l 644 204 l 824 204 l 904 454 l 900 456 m 989 204 l 976 144 l 896 144 l 854 0 l 767 0 l 811 146 l 578 146 l 596 204 l 972 564 l 1022 564 l 913 204 l 989 204 m 901 939 l 269 -14 l 199 -14 l 831 939 l 901 939 m 297 399 l 297 376 l 46 376 l 46 399 q 106 407 99 404 q 136 433 131 414 l 261 829 l 268 857 q 263 875 268 869 q 243 883 257 881 l 192 882 l 192 908 q 298 926 226 913 q 372 939 369 939 q 378 928 379 939 q 375 910 376 918 l 256 529 q 229 428 229 444 q 247 404 229 410 q 297 399 264 399 z "},"½":{"ha":1042,"x_min":47,"x_max":1040,"o":"m 882 939 l 250 -14 l 179 -14 l 811 939 l 882 939 m 299 399 l 299 376 l 47 376 l 47 399 q 107 407 100 404 q 138 433 132 414 l 263 829 l 269 857 q 264 875 269 869 q 244 883 258 881 l 193 882 l 193 908 q 299 926 228 913 q 374 939 371 939 q 379 928 381 939 q 376 910 378 918 l 257 529 q 231 428 231 444 q 248 404 231 410 q 299 399 265 399 m 988 121 l 1003 110 l 957 0 l 636 0 l 636 25 l 821 206 q 932 342 901 285 q 950 400 950 375 q 920 463 950 433 q 844 492 890 492 q 756 461 793 492 q 717 418 744 453 l 699 429 q 774 529 724 494 q 890 564 825 564 q 1001 518 957 564 q 1040 429 1040 478 q 1015 347 1040 385 q 903 233 989 310 l 744 81 l 747 74 l 897 74 q 956 85 939 74 q 988 121 972 96 z "},"¾":{"ha":1042,"x_min":32,"x_max":1022,"o":"m 900 456 l 644 204 l 824 204 l 904 454 l 900 456 m 989 204 l 976 144 l 896 144 l 854 0 l 767 0 l 811 146 l 578 146 l 596 204 l 972 564 l 1022 564 l 913 204 l 989 204 m 903 939 l 271 -14 l 200 -14 l 832 939 l 903 939 m 179 844 l 165 854 q 224 915 182 890 q 307 939 267 939 q 402 913 361 939 q 443 838 443 886 q 410 765 443 793 q 303 713 376 738 l 308 710 q 371 661 351 692 q 390 583 390 631 q 328 443 390 504 q 136 372 256 372 q 64 382 88 372 q 32 426 32 396 q 71 465 32 458 q 114 450 90 465 q 188 415 169 415 q 256 440 222 415 q 303 538 303 476 q 254 651 303 617 q 146 679 215 679 l 146 692 q 278 731 225 704 q 350 821 350 767 q 328 876 350 858 q 282 894 307 894 q 215 875 246 894 q 179 844 208 869 z "},"¿":{"ha":694,"x_min":39,"x_max":511,"o":"m 394 396 l 418 393 q 347 182 418 279 q 214 32 281 107 q 142 -137 142 -54 q 158 -208 142 -181 q 253 -254 186 -254 q 322 -237 293 -254 q 350 -189 350 -221 q 340 -150 350 -171 q 329 -115 329 -129 q 347 -77 329 -87 q 385 -67 365 -67 q 439 -132 439 -67 q 381 -246 439 -203 q 249 -285 328 -285 q 94 -236 150 -285 q 39 -108 39 -187 q 79 13 39 -39 q 225 146 111 53 q 318 231 290 199 q 385 356 369 289 l 394 396 m 364 581 q 383 631 364 607 q 436 654 401 654 q 490 635 469 654 q 511 583 511 615 q 490 532 511 553 q 438 511 469 511 q 383 535 403 511 q 364 581 364 558 z "},"À":{"ha":849,"x_min":-71,"x_max":783,"o":"m 783 22 l 783 0 l 442 0 l 442 22 q 550 92 550 22 l 547 132 l 519 314 l 214 314 l 135 157 q 114 110 121 129 q 107 71 107 92 q 122 35 107 44 q 189 22 138 26 l 189 0 l -71 0 l -71 22 q -4 58 -28 32 q 108 233 25 90 l 511 928 l 547 928 l 678 142 q 707 47 690 67 q 783 22 724 28 m 243 364 l 513 364 l 451 724 l 450 724 l 243 364 m 596 978 l 401 1125 q 381 1147 386 1138 q 375 1168 375 1156 q 388 1203 375 1190 q 425 1217 401 1217 q 449 1212 439 1217 q 478 1185 460 1207 l 639 978 l 596 978 z "},"Á":{"ha":849,"x_min":-71,"x_max":783,"o":"m 783 22 l 783 0 l 442 0 l 442 22 q 550 92 550 22 l 547 132 l 519 314 l 214 314 l 135 157 q 114 110 121 129 q 107 71 107 92 q 122 35 107 44 q 189 22 138 26 l 189 0 l -71 0 l -71 22 q -4 58 -28 32 q 108 233 25 90 l 511 928 l 547 928 l 678 142 q 707 47 690 67 q 783 22 724 28 m 243 364 l 513 364 l 451 724 l 450 724 l 243 364 m 729 1128 l 492 981 l 443 981 l 668 1203 q 703 1217 682 1217 q 739 1203 725 1217 q 753 1168 753 1189 q 729 1128 753 1143 z "},"Â":{"ha":849,"x_min":-71,"x_max":783,"o":"m 783 22 l 783 0 l 442 0 l 442 22 q 550 92 550 22 l 547 132 l 519 314 l 214 314 l 135 157 q 114 110 121 129 q 107 71 107 92 q 122 35 107 44 q 189 22 138 26 l 189 0 l -71 0 l -71 22 q -4 58 -28 32 q 108 233 25 90 l 511 928 l 547 928 l 678 142 q 707 47 690 67 q 783 22 724 28 m 243 364 l 513 364 l 451 724 l 450 724 l 243 364 m 613 1213 l 735 978 l 685 978 l 571 1122 l 381 978 l 326 978 l 544 1213 l 613 1213 z "},"Ã":{"ha":849,"x_min":-71,"x_max":786,"o":"m 783 22 l 783 0 l 442 0 l 442 22 q 550 92 550 22 l 547 132 l 519 314 l 214 314 l 135 157 q 114 110 121 129 q 107 71 107 92 q 122 35 107 44 q 189 22 138 26 l 189 0 l -71 0 l -71 22 q -4 58 -28 32 q 108 233 25 90 l 511 928 l 547 928 l 678 142 q 707 47 690 67 q 783 22 724 28 m 243 364 l 513 364 l 451 724 l 450 724 l 243 364 m 747 1161 l 786 1161 q 738 1055 775 1093 q 653 1017 701 1017 q 611 1026 638 1017 q 551 1047 585 1035 q 481 1072 503 1065 q 444 1078 460 1078 q 399 1060 417 1078 q 372 1013 381 1043 l 332 1013 q 368 1106 349 1078 q 472 1160 404 1160 q 582 1130 513 1160 q 674 1100 651 1100 q 726 1119 708 1100 q 747 1161 738 1132 z "},"Ä":{"ha":849,"x_min":-71,"x_max":783,"o":"m 783 22 l 783 0 l 442 0 l 442 22 q 550 92 550 22 l 547 132 l 519 314 l 214 314 l 135 157 q 114 110 121 129 q 107 71 107 92 q 122 35 107 44 q 189 22 138 26 l 189 0 l -71 0 l -71 22 q -4 58 -28 32 q 108 233 25 90 l 511 928 l 547 928 l 678 142 q 707 47 690 67 q 783 22 724 28 m 243 364 l 513 364 l 451 724 l 450 724 l 243 364 m 411 1136 q 455 1117 432 1136 q 478 1068 478 1099 q 458 1019 478 1039 q 410 1000 439 1000 q 361 1019 381 1000 q 342 1069 342 1039 q 364 1119 342 1101 q 411 1136 386 1136 m 689 1136 q 733 1117 710 1136 q 756 1068 756 1099 q 736 1019 756 1039 q 688 1000 717 1000 q 639 1019 658 1000 q 619 1069 619 1039 q 642 1119 619 1101 q 689 1136 664 1136 z "},"Å":{"ha":849,"x_min":-71,"x_max":783,"o":"m 783 22 l 783 0 l 442 0 l 442 22 q 550 92 550 22 l 547 132 l 519 314 l 214 314 l 135 157 q 114 110 121 129 q 107 71 107 92 q 122 35 107 44 q 189 22 138 26 l 189 0 l -71 0 l -71 22 q -4 58 -28 32 q 108 233 25 90 l 511 928 l 547 928 l 678 142 q 707 47 690 67 q 783 22 724 28 m 243 364 l 513 364 l 451 724 l 450 724 l 243 364 m 394 1088 q 434 1185 394 1144 q 533 1226 474 1226 q 631 1185 590 1226 q 672 1088 672 1144 q 632 990 672 1031 q 533 950 592 950 q 435 990 475 950 q 394 1088 394 1031 m 442 1088 q 465 1026 442 1056 q 532 997 488 997 q 599 1022 572 997 q 625 1088 625 1047 q 598 1152 625 1125 q 532 1179 571 1179 q 465 1149 489 1179 q 442 1088 442 1119 z "},"Æ":{"ha":1235,"x_min":-37,"x_max":1265,"o":"m 1147 235 l 1172 228 l 1083 0 l 392 0 l 392 22 q 472 39 453 29 q 503 89 490 49 l 571 325 l 307 325 q 204 194 247 253 q 133 69 133 97 q 151 38 133 47 q 222 22 168 28 l 222 0 l -37 0 l -37 22 q 10 49 -12 29 q 79 128 32 68 l 592 774 q 622 811 618 806 q 636 844 636 831 q 618 878 636 869 q 547 886 600 886 l 547 907 l 1265 907 l 1219 694 l 1196 697 q 1168 829 1196 807 q 951 861 1128 861 q 868 854 885 861 q 842 810 851 847 l 757 501 q 963 520 922 501 q 1050 636 1004 539 l 1075 631 l 979 308 l 956 314 q 961 349 958 332 q 964 382 964 367 q 933 442 964 429 q 800 456 903 456 l 744 456 q 685 242 703 307 q 646 88 646 101 q 717 46 646 46 l 758 46 q 991 83 910 46 q 1147 235 1072 121 m 346 376 l 586 376 l 714 835 l 706 835 l 346 376 z "},"Ç":{"ha":926,"x_min":92,"x_max":957,"o":"m 906 646 l 881 650 q 824 813 881 751 q 667 875 768 875 q 353 682 476 875 q 247 335 247 517 q 307 116 247 194 q 489 38 367 38 q 683 94 593 38 q 810 201 731 125 l 833 182 q 701 56 764 100 q 456 -25 588 -25 q 214 58 314 -25 q 92 350 92 160 q 254 738 92 560 q 656 925 426 925 q 760 915 707 925 q 872 892 815 903 q 909 899 899 892 q 928 922 919 907 l 957 922 l 906 646 m 261 -133 l 344 0 l 397 0 l 336 -92 q 374 -87 356 -87 q 453 -112 421 -87 q 485 -181 485 -137 q 426 -276 485 -244 q 315 -301 381 -301 q 190 -272 263 -301 l 214 -232 q 265 -248 244 -243 q 306 -253 286 -253 q 372 -229 356 -253 q 382 -192 382 -215 q 363 -151 382 -168 q 318 -135 343 -135 q 299 -137 310 -135 q 274 -144 289 -139 l 261 -133 z "},"È":{"ha":849,"x_min":-1,"x_max":881,"o":"m 881 907 l 838 694 l 808 697 q 779 829 808 807 q 554 861 739 861 q 466 855 482 861 q 443 825 450 849 l 351 501 q 547 512 507 501 q 614 560 588 522 q 632 593 621 571 q 653 636 649 628 l 678 631 l 583 308 l 556 315 q 565 381 565 351 q 534 444 565 433 q 339 456 503 456 q 258 161 272 215 q 244 93 244 107 q 293 50 244 60 q 340 46 315 46 q 617 89 531 46 q 767 236 686 124 l 789 225 l 703 0 l -1 0 l -1 22 q 71 46 54 32 q 111 125 94 65 l 282 739 q 290 781 283 744 q 297 824 297 818 q 190 885 297 885 l 190 907 l 881 907 m 596 978 l 401 1125 q 381 1147 386 1138 q 375 1168 375 1156 q 388 1203 375 1190 q 425 1217 401 1217 q 449 1212 439 1217 q 478 1185 460 1207 l 639 978 l 596 978 z "},"É":{"ha":849,"x_min":-1,"x_max":881,"o":"m 881 907 l 838 694 l 808 697 q 779 829 808 807 q 554 861 739 861 q 466 855 482 861 q 443 825 450 849 l 351 501 q 547 512 507 501 q 614 560 588 522 q 632 593 621 571 q 653 636 649 628 l 678 631 l 583 308 l 556 315 q 565 381 565 351 q 534 444 565 433 q 339 456 503 456 q 258 161 272 215 q 244 93 244 107 q 293 50 244 60 q 340 46 315 46 q 617 89 531 46 q 767 236 686 124 l 789 225 l 703 0 l -1 0 l -1 22 q 71 46 54 32 q 111 125 94 65 l 282 739 q 290 781 283 744 q 297 824 297 818 q 190 885 297 885 l 190 907 l 881 907 m 743 1128 l 506 981 l 457 981 l 682 1203 q 717 1217 696 1217 q 753 1203 739 1217 q 767 1168 767 1189 q 743 1128 767 1143 z "},"Ê":{"ha":849,"x_min":-1,"x_max":881,"o":"m 881 907 l 838 694 l 808 697 q 779 829 808 807 q 554 861 739 861 q 466 855 482 861 q 443 825 450 849 l 351 501 q 547 512 507 501 q 614 560 588 522 q 632 593 621 571 q 653 636 649 628 l 678 631 l 583 308 l 556 315 q 565 381 565 351 q 534 444 565 433 q 339 456 503 456 q 258 161 272 215 q 244 93 244 107 q 293 50 244 60 q 340 46 315 46 q 617 89 531 46 q 767 236 686 124 l 789 225 l 703 0 l -1 0 l -1 22 q 71 46 54 32 q 111 125 94 65 l 282 739 q 290 781 283 744 q 297 824 297 818 q 190 885 297 885 l 190 907 l 881 907 m 647 1213 l 769 978 l 719 978 l 606 1122 l 415 978 l 361 978 l 579 1213 l 647 1213 z "},"Ë":{"ha":849,"x_min":-1,"x_max":881,"o":"m 881 907 l 838 694 l 808 697 q 779 829 808 807 q 554 861 739 861 q 466 855 482 861 q 443 825 450 849 l 351 501 q 547 512 507 501 q 614 560 588 522 q 632 593 621 571 q 653 636 649 628 l 678 631 l 583 308 l 556 315 q 565 381 565 351 q 534 444 565 433 q 339 456 503 456 q 258 161 272 215 q 244 93 244 107 q 293 50 244 60 q 340 46 315 46 q 617 89 531 46 q 767 236 686 124 l 789 225 l 703 0 l -1 0 l -1 22 q 71 46 54 32 q 111 125 94 65 l 282 739 q 290 781 283 744 q 297 824 297 818 q 190 885 297 885 l 190 907 l 881 907 m 439 1136 q 483 1117 460 1136 q 506 1068 506 1099 q 486 1019 506 1039 q 438 1000 467 1000 q 389 1019 408 1000 q 369 1069 369 1039 q 392 1119 369 1101 q 439 1136 414 1136 m 717 1136 q 760 1117 738 1136 q 783 1068 783 1099 q 764 1019 783 1039 q 715 1000 744 1000 q 667 1019 686 1000 q 647 1069 647 1039 q 669 1119 647 1101 q 717 1136 692 1136 z "},"Ì":{"ha":463,"x_min":-11,"x_max":533,"o":"m -11 0 l -11 22 q 61 46 44 32 q 101 125 85 65 l 272 739 q 284 785 281 765 q 288 825 288 804 q 272 863 288 850 q 190 885 257 876 l 190 907 l 533 907 l 533 885 q 460 863 475 874 q 419 782 436 844 l 249 167 q 237 120 240 138 q 233 78 233 103 q 254 38 233 47 q 328 22 275 28 l 328 0 l -11 0 m 403 978 l 208 1125 q 188 1147 193 1138 q 182 1168 182 1156 q 195 1203 182 1190 q 232 1217 208 1217 q 256 1212 246 1217 q 285 1185 267 1207 l 446 978 l 403 978 z "},"Í":{"ha":463,"x_min":-11,"x_max":574,"o":"m -11 0 l -11 22 q 61 46 44 32 q 101 125 85 65 l 272 739 q 284 785 281 765 q 288 825 288 804 q 272 863 288 850 q 190 885 257 876 l 190 907 l 533 907 l 533 885 q 460 863 475 874 q 419 782 436 844 l 249 167 q 237 120 240 138 q 233 78 233 103 q 254 38 233 47 q 328 22 275 28 l 328 0 l -11 0 m 550 1128 l 313 981 l 264 981 l 489 1203 q 524 1217 503 1217 q 560 1203 546 1217 q 574 1168 574 1189 q 550 1128 574 1143 z "},"Î":{"ha":463,"x_min":-11,"x_max":590,"o":"m -11 0 l -11 22 q 61 46 44 32 q 101 125 85 65 l 272 739 q 284 785 281 765 q 288 825 288 804 q 272 863 288 850 q 190 885 257 876 l 190 907 l 533 907 l 533 885 q 460 863 475 874 q 419 782 436 844 l 249 167 q 237 120 240 138 q 233 78 233 103 q 254 38 233 47 q 328 22 275 28 l 328 0 l -11 0 m 468 1213 l 590 978 l 540 978 l 426 1122 l 236 978 l 182 978 l 400 1213 l 468 1213 z "},"Ï":{"ha":463,"x_min":-11,"x_max":604,"o":"m -11 0 l -11 22 q 61 46 44 32 q 101 125 85 65 l 272 739 q 284 785 281 765 q 288 825 288 804 q 272 863 288 850 q 190 885 257 876 l 190 907 l 533 907 l 533 885 q 460 863 475 874 q 419 782 436 844 l 249 167 q 237 120 240 138 q 233 78 233 103 q 254 38 233 47 q 328 22 275 28 l 328 0 l -11 0 m 260 1136 q 303 1117 281 1136 q 326 1068 326 1099 q 307 1019 326 1039 q 258 1000 288 1000 q 210 1019 229 1000 q 190 1069 190 1039 q 213 1119 190 1101 q 260 1136 235 1136 m 538 1136 q 581 1117 558 1136 q 604 1068 604 1099 q 585 1019 604 1039 q 536 1000 565 1000 q 488 1019 507 1000 q 468 1069 468 1039 q 490 1119 468 1101 q 538 1136 513 1136 z "},"Ð":{"ha":1003,"x_min":-11,"x_max":972,"o":"m 67 453 l 83 511 l 208 511 l 272 739 q 281 781 275 750 q 288 825 288 811 q 181 885 288 885 l 181 907 l 567 907 q 889 778 782 907 q 972 538 972 678 q 810 164 972 315 q 340 0 633 0 l -11 0 l -11 22 q 61 46 44 32 q 101 125 85 65 l 192 453 l 67 453 m 560 511 l 543 453 l 331 453 l 267 225 q 244 137 251 168 q 236 96 236 106 q 259 53 236 64 q 335 42 282 42 q 654 156 532 42 q 790 383 747 242 q 818 554 818 475 q 764 763 818 685 q 525 865 692 865 q 453 853 472 865 q 435 825 440 844 l 347 511 l 560 511 z "},"Ñ":{"ha":926,"x_min":-28,"x_max":1010,"o":"m 1010 907 l 1010 885 q 923 839 944 871 q 865 678 901 807 l 665 -21 l 640 -21 l 324 735 l 318 735 l 163 157 q 153 113 156 133 q 150 85 150 93 q 183 33 150 49 q 247 22 207 22 l 247 0 l -28 0 l -28 22 q 54 63 31 31 q 115 228 78 94 l 281 807 q 235 867 261 849 q 161 885 210 885 l 161 907 l 385 907 l 671 219 l 815 742 q 825 778 819 758 q 831 811 831 797 q 810 869 831 853 q 733 885 790 885 l 733 907 l 1010 907 m 800 1161 l 839 1161 q 791 1055 828 1093 q 706 1017 754 1017 q 664 1026 690 1017 q 604 1047 638 1035 q 534 1072 556 1065 q 497 1078 513 1078 q 451 1060 469 1078 q 425 1013 433 1043 l 385 1013 q 421 1106 401 1078 q 525 1160 457 1160 q 635 1130 565 1160 q 726 1100 704 1100 q 779 1119 761 1100 q 800 1161 790 1132 z "},"Ò":{"ha":1003,"x_min":83,"x_max":971,"o":"m 971 588 q 796 176 971 369 q 388 -25 614 -25 q 192 46 275 -25 q 83 315 83 138 q 272 735 83 539 q 649 925 456 925 q 872 844 785 925 q 971 588 971 754 m 229 251 q 238 165 229 200 q 410 21 272 21 q 642 147 538 21 q 779 415 726 250 q 825 656 825 558 q 785 815 825 760 q 643 879 739 879 q 414 757 517 879 q 275 494 329 656 q 229 251 229 357 m 674 978 l 479 1125 q 458 1147 464 1138 q 453 1168 453 1156 q 466 1203 453 1190 q 503 1217 479 1217 q 527 1212 517 1217 q 556 1185 538 1207 l 717 978 l 674 978 z "},"Ó":{"ha":1003,"x_min":83,"x_max":971,"o":"m 971 588 q 796 176 971 369 q 388 -25 614 -25 q 192 46 275 -25 q 83 315 83 138 q 272 735 83 539 q 649 925 456 925 q 872 844 785 925 q 971 588 971 754 m 229 251 q 238 165 229 200 q 410 21 272 21 q 642 147 538 21 q 779 415 726 250 q 825 656 825 558 q 785 815 825 760 q 643 879 739 879 q 414 757 517 879 q 275 494 329 656 q 229 251 229 357 m 807 1128 l 569 981 l 521 981 l 746 1203 q 781 1217 760 1217 q 817 1203 803 1217 q 831 1168 831 1189 q 807 1128 831 1143 z "},"Ô":{"ha":1003,"x_min":83,"x_max":971,"o":"m 971 588 q 796 176 971 369 q 388 -25 614 -25 q 192 46 275 -25 q 83 315 83 138 q 272 735 83 539 q 649 925 456 925 q 872 844 785 925 q 971 588 971 754 m 229 251 q 238 165 229 200 q 410 21 272 21 q 642 147 538 21 q 779 415 726 250 q 825 656 825 558 q 785 815 825 760 q 643 879 739 879 q 414 757 517 879 q 275 494 329 656 q 229 251 229 357 m 732 1213 l 854 978 l 804 978 l 690 1122 l 500 978 l 446 978 l 664 1213 l 732 1213 z "},"Õ":{"ha":1003,"x_min":83,"x_max":971,"o":"m 971 588 q 796 176 971 369 q 388 -25 614 -25 q 192 46 275 -25 q 83 315 83 138 q 272 735 83 539 q 649 925 456 925 q 872 844 785 925 q 971 588 971 754 m 229 251 q 238 165 229 200 q 410 21 272 21 q 642 147 538 21 q 779 415 726 250 q 825 656 825 558 q 785 815 825 760 q 643 879 739 879 q 414 757 517 879 q 275 494 329 656 q 229 251 229 357 m 853 1161 l 892 1161 q 844 1055 881 1093 q 758 1017 807 1017 q 717 1026 743 1017 q 657 1047 690 1035 q 587 1072 608 1065 q 550 1078 565 1078 q 504 1060 522 1078 q 478 1013 486 1043 l 438 1013 q 474 1106 454 1078 q 578 1160 510 1160 q 688 1130 618 1160 q 779 1100 757 1100 q 832 1119 814 1100 q 853 1161 843 1132 z "},"Ö":{"ha":1003,"x_min":83,"x_max":971,"o":"m 971 588 q 796 176 971 369 q 388 -25 614 -25 q 192 46 275 -25 q 83 315 83 138 q 272 735 83 539 q 649 925 456 925 q 872 844 785 925 q 971 588 971 754 m 229 251 q 238 165 229 200 q 410 21 272 21 q 642 147 538 21 q 779 415 726 250 q 825 656 825 558 q 785 815 825 760 q 643 879 739 879 q 414 757 517 879 q 275 494 329 656 q 229 251 229 357 m 538 1136 q 581 1117 558 1136 q 604 1068 604 1099 q 585 1019 604 1039 q 536 1000 565 1000 q 488 1019 507 1000 q 468 1069 468 1039 q 490 1119 468 1101 q 538 1136 513 1136 m 815 1136 q 859 1117 836 1136 q 882 1068 882 1099 q 863 1019 882 1039 q 814 1000 843 1000 q 765 1019 785 1000 q 746 1069 746 1039 q 768 1119 746 1101 q 815 1136 790 1136 z "},"×":{"ha":938,"x_min":129,"x_max":808,"o":"m 401 351 l 129 624 l 196 690 l 468 417 l 742 690 l 808 624 l 535 351 l 808 78 l 742 11 l 468 285 l 196 11 l 129 78 l 401 351 z "},"Ø":{"ha":1003,"x_min":83,"x_max":971,"o":"m 264 103 l 758 843 q 643 879 715 879 q 414 757 517 879 q 275 494 329 656 q 229 251 229 357 q 233 189 229 228 q 264 103 236 150 m 792 797 l 299 61 q 345 31 318 42 q 411 21 372 21 q 643 147 539 21 q 781 413 729 251 q 825 650 825 550 q 818 732 825 696 q 792 797 811 768 m 929 1003 l 840 869 q 936 756 901 826 q 971 588 971 686 q 796 176 971 369 q 388 -25 614 -25 q 260 4 326 -25 l 157 -146 l 96 -146 l 215 31 q 122 135 156 71 q 83 315 83 211 q 272 735 83 539 q 649 925 456 925 q 796 894 729 925 l 868 1003 l 929 1003 z "},"Ù":{"ha":1003,"x_min":142,"x_max":1063,"o":"m 1063 907 l 1063 885 q 976 840 997 871 q 918 678 956 808 l 803 282 q 681 60 758 132 q 438 -25 589 -25 q 236 32 318 -25 q 142 210 142 97 q 178 415 142 274 q 247 665 183 438 q 285 825 285 799 q 265 869 285 860 q 176 885 244 879 l 176 907 l 556 907 l 556 885 q 471 863 497 879 q 415 776 432 839 q 369 615 414 769 q 301 369 318 432 q 267 200 267 233 q 329 69 267 114 q 460 32 382 32 q 628 90 560 32 q 758 335 710 160 q 825 581 796 469 q 885 814 885 801 q 859 870 885 856 q 786 885 833 885 l 786 907 l 1063 907 m 688 978 l 493 1125 q 472 1147 478 1138 q 467 1168 467 1156 q 480 1203 467 1190 q 517 1217 493 1217 q 541 1212 531 1217 q 569 1185 551 1207 l 731 978 l 688 978 z "},"Ú":{"ha":1003,"x_min":142,"x_max":1063,"o":"m 1063 907 l 1063 885 q 976 840 997 871 q 918 678 956 808 l 803 282 q 681 60 758 132 q 438 -25 589 -25 q 236 32 318 -25 q 142 210 142 97 q 178 415 142 274 q 247 665 183 438 q 285 825 285 799 q 265 869 285 860 q 176 885 244 879 l 176 907 l 556 907 l 556 885 q 471 863 497 879 q 415 776 432 839 q 369 615 414 769 q 301 369 318 432 q 267 200 267 233 q 329 69 267 114 q 460 32 382 32 q 628 90 560 32 q 758 335 710 160 q 825 581 796 469 q 885 814 885 801 q 859 870 885 856 q 786 885 833 885 l 786 907 l 1063 907 m 807 1128 l 569 981 l 521 981 l 746 1203 q 781 1217 760 1217 q 817 1203 803 1217 q 831 1168 831 1189 q 807 1128 831 1143 z "},"Û":{"ha":1003,"x_min":142,"x_max":1063,"o":"m 1063 907 l 1063 885 q 976 840 997 871 q 918 678 956 808 l 803 282 q 681 60 758 132 q 438 -25 589 -25 q 236 32 318 -25 q 142 210 142 97 q 178 415 142 274 q 247 665 183 438 q 285 825 285 799 q 265 869 285 860 q 176 885 244 879 l 176 907 l 556 907 l 556 885 q 471 863 497 879 q 415 776 432 839 q 369 615 414 769 q 301 369 318 432 q 267 200 267 233 q 329 69 267 114 q 460 32 382 32 q 628 90 560 32 q 758 335 710 160 q 825 581 796 469 q 885 814 885 801 q 859 870 885 856 q 786 885 833 885 l 786 907 l 1063 907 m 711 1213 l 833 978 l 783 978 l 669 1122 l 479 978 l 425 978 l 643 1213 l 711 1213 z "},"Ü":{"ha":1003,"x_min":142,"x_max":1063,"o":"m 1063 907 l 1063 885 q 976 840 997 871 q 918 678 956 808 l 803 282 q 681 60 758 132 q 438 -25 589 -25 q 236 32 318 -25 q 142 210 142 97 q 178 415 142 274 q 247 665 183 438 q 285 825 285 799 q 265 869 285 860 q 176 885 244 879 l 176 907 l 556 907 l 556 885 q 471 863 497 879 q 415 776 432 839 q 369 615 414 769 q 301 369 318 432 q 267 200 267 233 q 329 69 267 114 q 460 32 382 32 q 628 90 560 32 q 758 335 710 160 q 825 581 796 469 q 885 814 885 801 q 859 870 885 856 q 786 885 833 885 l 786 907 l 1063 907 m 531 1136 q 574 1117 551 1136 q 597 1068 597 1099 q 578 1019 597 1039 q 529 1000 558 1000 q 481 1019 500 1000 q 461 1069 461 1039 q 483 1119 461 1101 q 531 1136 506 1136 m 808 1136 q 852 1117 829 1136 q 875 1068 875 1099 q 856 1019 875 1039 q 807 1000 836 1000 q 758 1019 778 1000 q 739 1069 739 1039 q 761 1119 739 1101 q 808 1136 783 1136 z "},"Ý":{"ha":772,"x_min":108,"x_max":879,"o":"m 126 885 l 126 907 l 458 907 l 458 885 q 399 878 411 881 q 358 832 358 868 q 392 692 358 810 q 451 482 421 586 q 606 667 528 574 q 713 838 713 800 q 694 872 713 864 q 617 885 675 879 l 617 907 l 879 907 l 879 885 q 833 856 850 871 q 782 800 815 842 l 478 425 l 438 285 q 404 171 411 196 q 386 82 386 107 q 411 33 386 44 q 510 22 436 22 l 510 0 l 108 0 l 108 22 q 196 40 172 28 q 254 125 236 63 l 339 419 l 232 793 q 199 863 215 850 q 126 885 183 876 m 719 1128 l 482 981 l 433 981 l 658 1203 q 693 1217 672 1217 q 729 1203 715 1217 q 743 1168 743 1189 q 719 1128 743 1143 z "},"Þ":{"ha":849,"x_min":0,"x_max":790,"o":"m 203 885 l 203 907 l 533 907 l 533 885 q 481 872 492 878 q 447 826 458 860 l 419 719 l 497 719 q 715 667 639 719 q 790 508 790 614 q 717 335 790 410 q 433 236 619 236 q 339 238 363 236 q 286 250 315 240 l 263 167 q 249 113 251 128 q 246 82 246 97 q 264 40 246 50 q 340 22 282 31 l 340 0 l 0 0 l 0 22 q 60 35 49 31 q 114 125 93 50 l 278 715 q 293 772 285 736 q 301 822 301 808 q 279 867 301 857 q 203 885 257 878 m 397 638 l 299 293 q 329 288 315 290 q 361 286 343 286 q 542 314 485 286 q 647 515 647 365 q 608 635 647 599 q 453 678 563 678 q 411 664 425 678 q 397 638 404 657 z "},"ß":{"ha":694,"x_min":-233,"x_max":685,"o":"m 286 608 l 132 17 q 63 -157 106 -83 q -125 -287 -15 -287 q -203 -266 -172 -287 q -233 -204 -233 -244 q -217 -158 -233 -172 q -176 -143 -201 -143 q -140 -158 -156 -143 q -124 -193 -124 -172 q -132 -222 -124 -204 q -140 -242 -140 -240 q -115 -254 -140 -254 q -21 -179 -57 -254 q 32 -6 3 -129 l 132 438 q 264 807 190 693 q 493 943 353 943 q 640 885 589 943 q 685 763 685 835 q 606 607 685 669 q 469 538 560 571 l 458 533 q 585 473 539 531 q 631 326 631 415 q 558 115 631 224 q 332 -18 469 -18 q 263 1 292 -18 q 224 75 224 26 q 241 122 224 104 q 285 139 258 139 q 324 124 311 139 q 338 83 338 108 q 329 51 338 67 q 321 31 321 36 q 346 13 321 13 q 469 144 421 13 q 510 354 510 253 q 408 511 510 499 q 361 532 361 517 q 394 551 361 550 q 463 571 426 553 q 551 672 524 601 q 574 807 574 729 q 485 911 574 911 q 375 833 425 911 q 286 608 325 756 z "},"à":{"ha":694,"x_min":24,"x_max":661,"o":"m 644 153 l 661 139 q 471 -14 538 -14 q 419 7 432 -14 q 413 46 413 18 q 442 193 413 82 l 439 196 q 292 26 356 74 q 167 -15 235 -15 q 60 26 97 -15 q 24 149 24 67 q 153 458 24 303 q 421 613 283 613 q 497 590 465 613 q 531 538 528 568 l 547 599 l 551 603 l 636 613 l 646 608 q 610 472 628 540 q 547 229 565 303 q 514 75 514 93 q 533 57 514 57 q 644 153 546 57 m 140 151 q 168 75 140 101 q 224 53 192 53 q 421 219 325 53 q 507 489 507 369 q 484 559 507 536 q 428 582 461 582 q 224 414 318 582 q 140 151 140 265 m 506 683 l 311 831 q 290 852 296 843 q 285 874 285 861 q 298 909 285 896 q 335 922 311 922 q 359 917 349 922 q 388 890 369 913 l 549 683 l 506 683 z "},"á":{"ha":694,"x_min":24,"x_max":676,"o":"m 644 153 l 661 139 q 471 -14 538 -14 q 419 7 432 -14 q 413 46 413 18 q 442 193 413 82 l 439 196 q 292 26 356 74 q 167 -15 235 -15 q 60 26 97 -15 q 24 149 24 67 q 153 458 24 303 q 421 613 283 613 q 497 590 465 613 q 531 538 528 568 l 547 599 l 551 603 l 636 613 l 646 608 q 610 472 628 540 q 547 229 565 303 q 514 75 514 93 q 533 57 514 57 q 644 153 546 57 m 140 151 q 168 75 140 101 q 224 53 192 53 q 421 219 325 53 q 507 489 507 369 q 484 559 507 536 q 428 582 461 582 q 224 414 318 582 q 140 151 140 265 m 653 833 l 415 686 l 367 686 l 592 908 q 626 922 606 922 q 663 908 649 922 q 676 874 676 894 q 653 833 676 849 z "},"â":{"ha":694,"x_min":24,"x_max":661,"o":"m 644 153 l 661 139 q 471 -14 538 -14 q 419 7 432 -14 q 413 46 413 18 q 442 193 413 82 l 439 196 q 292 26 356 74 q 167 -15 235 -15 q 60 26 97 -15 q 24 149 24 67 q 153 458 24 303 q 421 613 283 613 q 497 590 465 613 q 531 538 528 568 l 547 599 l 551 603 l 636 613 l 646 608 q 610 472 628 540 q 547 229 565 303 q 514 75 514 93 q 533 57 514 57 q 644 153 546 57 m 140 151 q 168 75 140 101 q 224 53 192 53 q 421 219 325 53 q 507 489 507 369 q 484 559 507 536 q 428 582 461 582 q 224 414 318 582 q 140 151 140 265 m 529 918 l 651 683 l 601 683 l 488 828 l 297 683 l 243 683 l 461 918 l 529 918 z "},"ã":{"ha":694,"x_min":24,"x_max":710,"o":"m 644 153 l 661 139 q 471 -14 538 -14 q 419 7 432 -14 q 413 46 413 18 q 442 193 413 82 l 439 196 q 292 26 356 74 q 167 -15 235 -15 q 60 26 97 -15 q 24 149 24 67 q 153 458 24 303 q 421 613 283 613 q 497 590 465 613 q 531 538 528 568 l 547 599 l 551 603 l 636 613 l 646 608 q 610 472 628 540 q 547 229 565 303 q 514 75 514 93 q 533 57 514 57 q 644 153 546 57 m 140 151 q 168 75 140 101 q 224 53 192 53 q 421 219 325 53 q 507 489 507 369 q 484 559 507 536 q 428 582 461 582 q 224 414 318 582 q 140 151 140 265 m 671 867 l 710 867 q 662 760 699 799 q 576 722 625 722 q 535 731 561 722 q 475 753 508 740 q 405 777 426 771 q 368 783 383 783 q 322 766 340 783 q 296 718 304 749 l 256 718 q 292 811 272 783 q 396 865 328 865 q 506 835 436 865 q 597 806 575 806 q 650 825 632 806 q 671 867 661 838 z "},"ä":{"ha":694,"x_min":24,"x_max":679,"o":"m 644 153 l 661 139 q 471 -14 538 -14 q 419 7 432 -14 q 413 46 413 18 q 442 193 413 82 l 439 196 q 292 26 356 74 q 167 -15 235 -15 q 60 26 97 -15 q 24 149 24 67 q 153 458 24 303 q 421 613 283 613 q 497 590 465 613 q 531 538 528 568 l 547 599 l 551 603 l 636 613 l 646 608 q 610 472 628 540 q 547 229 565 303 q 514 75 514 93 q 533 57 514 57 q 644 153 546 57 m 140 151 q 168 75 140 101 q 224 53 192 53 q 421 219 325 53 q 507 489 507 369 q 484 559 507 536 q 428 582 461 582 q 224 414 318 582 q 140 151 140 265 m 335 842 q 378 823 356 842 q 401 774 401 804 q 382 725 401 744 q 333 706 363 706 q 285 725 304 706 q 265 775 265 744 q 288 824 265 807 q 335 842 310 842 m 613 842 q 656 823 633 842 q 679 774 679 804 q 660 725 679 744 q 611 706 640 706 q 563 725 582 706 q 543 775 543 744 q 565 824 543 807 q 613 842 588 842 z "},"å":{"ha":694,"x_min":24,"x_max":661,"o":"m 644 153 l 661 139 q 471 -14 538 -14 q 419 7 432 -14 q 413 46 413 18 q 442 193 413 82 l 439 196 q 292 26 356 74 q 167 -15 235 -15 q 60 26 97 -15 q 24 149 24 67 q 153 458 24 303 q 421 613 283 613 q 497 590 465 613 q 531 538 528 568 l 547 599 l 551 603 l 636 613 l 646 608 q 610 472 628 540 q 547 229 565 303 q 514 75 514 93 q 533 57 514 57 q 644 153 546 57 m 140 151 q 168 75 140 101 q 224 53 192 53 q 421 219 325 53 q 507 489 507 369 q 484 559 507 536 q 428 582 461 582 q 224 414 318 582 q 140 151 140 265 m 332 821 q 372 919 332 878 q 471 960 411 960 q 569 919 528 960 q 610 821 610 878 q 569 724 610 764 q 471 683 529 683 q 372 724 413 683 q 332 821 332 764 m 379 821 q 402 760 379 789 q 469 731 425 731 q 536 756 510 731 q 563 821 563 781 q 535 885 563 858 q 469 913 508 913 q 403 883 426 913 q 379 821 379 853 z "},"æ":{"ha":926,"x_min":32,"x_max":889,"o":"m 817 157 l 831 140 q 706 32 800 90 q 564 -15 629 -15 q 449 36 488 -15 q 411 163 411 88 l 415 194 l 408 194 q 263 25 324 71 q 153 -15 208 -15 q 56 33 86 -15 q 32 132 32 71 q 158 440 32 275 q 417 613 290 613 q 483 593 461 613 q 513 547 497 581 l 539 607 l 638 610 l 610 532 l 613 529 q 776 613 693 613 q 843 597 815 613 q 889 518 889 572 q 718 336 889 407 q 533 275 656 310 q 524 232 526 244 q 522 194 522 219 q 535 107 522 138 q 624 50 558 50 q 696 68 657 50 q 817 157 754 94 m 151 144 q 160 77 151 100 q 201 54 169 54 q 394 226 296 54 q 486 504 486 388 q 461 572 486 553 q 419 585 444 585 q 236 417 328 585 q 151 144 151 261 m 797 526 q 783 567 797 556 q 747 578 768 578 q 642 515 693 578 q 542 310 583 444 q 740 404 672 336 q 797 526 797 461 z "},"ç":{"ha":617,"x_min":36,"x_max":590,"o":"m 486 147 l 508 133 q 419 43 463 75 q 247 -15 340 -15 q 111 25 163 -15 q 42 204 42 79 q 164 483 42 354 q 439 613 286 613 q 558 572 517 613 q 590 500 590 542 q 571 454 590 472 q 525 436 551 436 q 469 488 469 436 q 480 528 469 508 q 490 556 490 547 q 474 576 490 569 q 438 583 458 583 q 232 444 315 583 q 161 204 161 325 q 288 35 161 35 q 399 69 344 35 q 486 147 439 96 m 107 -133 l 190 0 l 243 0 l 182 -92 q 219 -87 201 -87 q 299 -112 267 -87 q 331 -181 331 -137 q 272 -276 331 -244 q 161 -301 226 -301 q 36 -272 108 -301 l 60 -232 q 111 -248 90 -243 q 151 -253 132 -253 q 218 -229 201 -253 q 228 -192 228 -215 q 208 -151 228 -168 q 164 -135 189 -135 q 145 -137 156 -135 q 119 -144 135 -139 l 107 -133 z "},"è":{"ha":617,"x_min":43,"x_max":572,"o":"m 211 350 l 188 289 q 404 385 328 318 q 481 525 481 453 q 469 565 481 549 q 432 581 457 581 q 314 514 376 581 q 211 350 251 447 m 497 151 l 514 135 q 381 28 476 81 q 233 -15 301 -15 q 83 50 133 -15 q 43 181 43 101 q 177 472 43 331 q 458 613 311 613 q 572 518 572 613 q 476 360 572 433 q 217 264 379 288 l 178 258 q 167 211 171 228 q 164 174 164 194 q 207 75 164 108 q 294 47 242 47 q 397 78 344 47 q 497 151 432 99 m 467 683 l 272 831 q 251 852 257 843 q 246 874 246 861 q 259 909 246 896 q 296 922 272 922 q 320 917 310 922 q 349 890 331 913 l 510 683 l 467 683 z "},"é":{"ha":617,"x_min":43,"x_max":638,"o":"m 211 350 l 188 289 q 404 385 328 318 q 481 525 481 453 q 469 565 481 549 q 432 581 457 581 q 314 514 376 581 q 211 350 251 447 m 497 151 l 514 135 q 381 28 476 81 q 233 -15 301 -15 q 83 50 133 -15 q 43 181 43 101 q 177 472 43 331 q 458 613 311 613 q 572 518 572 613 q 476 360 572 433 q 217 264 379 288 l 178 258 q 167 211 171 228 q 164 174 164 194 q 207 75 164 108 q 294 47 242 47 q 397 78 344 47 q 497 151 432 99 m 614 833 l 376 686 l 328 686 l 553 908 q 588 922 567 922 q 624 908 610 922 q 638 874 638 894 q 614 833 638 849 z "},"ê":{"ha":617,"x_min":43,"x_max":613,"o":"m 211 350 l 188 289 q 404 385 328 318 q 481 525 481 453 q 469 565 481 549 q 432 581 457 581 q 314 514 376 581 q 211 350 251 447 m 497 151 l 514 135 q 381 28 476 81 q 233 -15 301 -15 q 83 50 133 -15 q 43 181 43 101 q 177 472 43 331 q 458 613 311 613 q 572 518 572 613 q 476 360 572 433 q 217 264 379 288 l 178 258 q 167 211 171 228 q 164 174 164 194 q 207 75 164 108 q 294 47 242 47 q 397 78 344 47 q 497 151 432 99 m 490 918 l 613 683 l 563 683 l 449 828 l 258 683 l 204 683 l 422 918 l 490 918 z "},"ë":{"ha":617,"x_min":43,"x_max":626,"o":"m 211 350 l 188 289 q 404 385 328 318 q 481 525 481 453 q 469 565 481 549 q 432 581 457 581 q 314 514 376 581 q 211 350 251 447 m 497 151 l 514 135 q 381 28 476 81 q 233 -15 301 -15 q 83 50 133 -15 q 43 181 43 101 q 177 472 43 331 q 458 613 311 613 q 572 518 572 613 q 476 360 572 433 q 217 264 379 288 l 178 258 q 167 211 171 228 q 164 174 164 194 q 207 75 164 108 q 294 47 242 47 q 397 78 344 47 q 497 151 432 99 m 282 842 q 326 823 303 842 q 349 774 349 804 q 329 725 349 744 q 281 706 310 706 q 232 725 251 706 q 213 775 213 744 q 235 824 213 807 q 282 842 257 842 m 560 842 q 603 823 581 842 q 626 774 626 804 q 607 725 626 744 q 558 706 588 706 q 510 725 529 706 q 490 775 490 744 q 513 824 490 807 q 560 842 535 842 z "},"ì":{"ha":386,"x_min":68,"x_max":393,"o":"m 308 158 l 326 143 q 239 33 278 69 q 133 -15 186 -15 q 76 18 92 -15 q 68 71 68 38 q 123 307 68 108 q 178 519 178 506 q 163 549 178 543 q 90 556 147 556 l 90 578 q 203 593 121 578 q 313 613 286 608 l 317 610 l 194 163 q 181 114 190 147 q 172 71 172 81 q 194 50 172 50 q 236 74 210 50 q 308 158 268 103 m 350 683 l 156 831 q 135 852 140 843 q 129 874 129 861 q 142 909 129 896 q 179 922 156 922 q 203 917 193 922 q 232 890 214 913 l 393 683 l 350 683 z "},"í":{"ha":386,"x_min":68,"x_max":493,"o":"m 308 158 l 326 143 q 239 33 278 69 q 133 -15 186 -15 q 76 18 92 -15 q 68 71 68 38 q 123 307 68 108 q 178 519 178 506 q 163 549 178 543 q 90 556 147 556 l 90 578 q 203 593 121 578 q 313 613 286 608 l 317 610 l 194 163 q 181 114 190 147 q 172 71 172 81 q 194 50 172 50 q 236 74 210 50 q 308 158 268 103 m 469 833 l 232 686 l 183 686 l 408 908 q 443 922 422 922 q 479 908 465 922 q 493 874 493 894 q 469 833 493 849 z "},"î":{"ha":386,"x_min":46,"x_max":454,"o":"m 308 158 l 326 143 q 239 33 278 69 q 133 -15 186 -15 q 76 18 92 -15 q 68 71 68 38 q 123 307 68 108 q 178 519 178 506 q 163 549 178 543 q 90 556 147 556 l 90 578 q 203 593 121 578 q 313 613 286 608 l 317 610 l 194 163 q 181 114 190 147 q 172 71 172 81 q 194 50 172 50 q 236 74 210 50 q 308 158 268 103 m 332 918 l 454 683 l 404 683 l 290 828 l 100 683 l 46 683 l 264 918 l 332 918 z "},"ï":{"ha":386,"x_min":68,"x_max":489,"o":"m 308 158 l 326 143 q 239 33 278 69 q 133 -15 186 -15 q 76 18 92 -15 q 68 71 68 38 q 123 307 68 108 q 178 519 178 506 q 163 549 178 543 q 90 556 147 556 l 90 578 q 203 593 121 578 q 313 613 286 608 l 317 610 l 194 163 q 181 114 190 147 q 172 71 172 81 q 194 50 172 50 q 236 74 210 50 q 308 158 268 103 m 144 842 q 188 823 165 842 q 211 774 211 804 q 192 725 211 744 q 143 706 172 706 q 94 725 114 706 q 75 775 75 744 q 97 824 75 807 q 144 842 119 842 m 422 842 q 466 823 443 842 q 489 774 489 804 q 469 725 489 744 q 421 706 450 706 q 372 725 392 706 q 353 775 353 744 q 375 824 353 807 q 422 842 397 842 z "},"ð":{"ha":694,"x_min":38,"x_max":669,"o":"m 436 583 q 238 425 328 583 q 154 143 154 279 q 183 49 154 83 q 265 14 213 14 q 458 176 374 14 q 533 450 533 321 q 508 545 533 507 q 436 583 483 583 m 450 788 l 288 717 l 242 757 l 413 832 q 345 887 381 864 q 269 925 310 910 l 318 949 q 403 919 360 940 q 488 864 447 897 l 625 924 l 669 885 l 529 822 q 617 683 585 763 q 649 506 649 603 q 528 142 649 299 q 247 -15 407 -15 q 90 40 142 -15 q 38 185 38 94 q 164 475 38 338 q 431 613 290 613 q 547 544 515 613 q 515 677 540 615 q 450 788 489 739 z "},"ñ":{"ha":694,"x_min":19,"x_max":661,"o":"m 639 163 l 658 144 q 588 54 607 75 q 465 -12 526 -12 q 410 8 422 -12 q 399 69 399 29 q 450 275 399 83 q 501 497 501 467 q 467 542 501 542 q 358 472 422 542 q 263 344 313 422 q 190 207 218 278 q 124 0 171 158 l 19 0 q 74 196 31 40 q 129 400 111 329 q 156 511 156 500 q 138 538 156 529 q 67 547 121 547 l 67 569 l 292 613 l 296 610 l 207 319 l 210 317 q 344 503 286 438 q 518 613 442 613 q 614 521 614 613 q 558 292 614 489 q 503 76 503 94 q 514 57 503 64 q 525 53 517 56 q 572 83 543 53 q 639 163 596 108 m 622 867 l 661 867 q 613 760 650 799 q 528 722 576 722 q 486 731 513 722 q 426 753 460 740 q 356 777 378 771 q 319 783 335 783 q 274 766 292 783 q 247 718 256 749 l 207 718 q 243 811 224 783 q 347 865 279 865 q 457 835 388 865 q 549 806 526 806 q 601 825 583 806 q 622 867 613 838 z "},"ò":{"ha":694,"x_min":38,"x_max":650,"o":"m 446 613 q 608 544 556 613 q 650 407 650 490 q 529 132 650 269 q 247 -15 400 -15 q 90 40 142 -15 q 38 185 38 94 q 166 476 38 339 q 446 613 294 613 m 436 583 q 238 425 328 583 q 154 143 154 279 q 183 49 154 83 q 265 14 213 14 q 458 176 374 14 q 533 450 533 321 q 508 545 533 507 q 436 583 483 583 m 506 683 l 311 831 q 290 852 296 843 q 285 874 285 861 q 298 909 285 896 q 335 922 311 922 q 359 917 349 922 q 388 890 369 913 l 549 683 l 506 683 z "},"ó":{"ha":694,"x_min":38,"x_max":676,"o":"m 446 613 q 608 544 556 613 q 650 407 650 490 q 529 132 650 269 q 247 -15 400 -15 q 90 40 142 -15 q 38 185 38 94 q 166 476 38 339 q 446 613 294 613 m 436 583 q 238 425 328 583 q 154 143 154 279 q 183 49 154 83 q 265 14 213 14 q 458 176 374 14 q 533 450 533 321 q 508 545 533 507 q 436 583 483 583 m 653 833 l 415 686 l 367 686 l 592 908 q 626 922 606 922 q 663 908 649 922 q 676 874 676 894 q 653 833 676 849 z "},"ô":{"ha":694,"x_min":38,"x_max":650,"o":"m 446 613 q 608 544 556 613 q 650 407 650 490 q 529 132 650 269 q 247 -15 400 -15 q 90 40 142 -15 q 38 185 38 94 q 166 476 38 339 q 446 613 294 613 m 436 583 q 238 425 328 583 q 154 143 154 279 q 183 49 154 83 q 265 14 213 14 q 458 176 374 14 q 533 450 533 321 q 508 545 533 507 q 436 583 483 583 m 515 918 l 638 683 l 588 683 l 474 828 l 283 683 l 229 683 l 447 918 l 515 918 z "},"õ":{"ha":694,"x_min":38,"x_max":689,"o":"m 446 613 q 608 544 556 613 q 650 407 650 490 q 529 132 650 269 q 247 -15 400 -15 q 90 40 142 -15 q 38 185 38 94 q 166 476 38 339 q 446 613 294 613 m 436 583 q 238 425 328 583 q 154 143 154 279 q 183 49 154 83 q 265 14 213 14 q 458 176 374 14 q 533 450 533 321 q 508 545 533 507 q 436 583 483 583 m 650 867 l 689 867 q 641 760 678 799 q 556 722 604 722 q 514 731 540 722 q 454 753 488 740 q 384 777 406 771 q 347 783 363 783 q 301 766 319 783 q 275 718 283 749 l 235 718 q 271 811 251 783 q 375 865 307 865 q 485 835 415 865 q 576 806 554 806 q 629 825 611 806 q 650 867 640 838 z "},"ö":{"ha":694,"x_min":38,"x_max":679,"o":"m 446 613 q 608 544 556 613 q 650 407 650 490 q 529 132 650 269 q 247 -15 400 -15 q 90 40 142 -15 q 38 185 38 94 q 166 476 38 339 q 446 613 294 613 m 436 583 q 238 425 328 583 q 154 143 154 279 q 183 49 154 83 q 265 14 213 14 q 458 176 374 14 q 533 450 533 321 q 508 545 533 507 q 436 583 483 583 m 335 842 q 378 823 356 842 q 401 774 401 804 q 382 725 401 744 q 333 706 363 706 q 285 725 304 706 q 265 775 265 744 q 288 824 265 807 q 335 842 310 842 m 613 842 q 656 823 633 842 q 679 774 679 804 q 660 725 679 744 q 611 706 640 706 q 563 725 582 706 q 543 775 543 744 q 565 824 543 807 q 613 842 588 842 z "},"÷":{"ha":938,"x_min":119,"x_max":819,"o":"m 819 306 l 119 306 l 119 397 l 819 397 l 819 306 m 469 -15 q 421 1 442 -15 q 393 60 393 24 q 415 115 393 92 q 469 139 438 139 q 524 115 500 139 q 547 60 547 92 q 522 5 547 25 q 469 -15 496 -15 m 469 564 q 421 581 442 564 q 393 639 393 603 q 415 694 393 671 q 469 718 438 718 q 524 694 500 718 q 547 639 547 671 q 522 584 547 604 q 469 564 496 564 z "},"ø":{"ha":694,"x_min":39,"x_max":651,"o":"m 194 40 l 456 581 q 439 583 451 583 q 238 424 329 583 q 156 143 156 279 q 194 40 156 75 m 496 564 l 232 19 q 267 14 244 14 q 461 176 376 14 q 535 446 535 318 q 526 510 535 478 q 496 564 518 543 m 594 769 l 514 604 q 619 531 583 588 q 651 404 651 479 q 531 133 651 271 q 249 -15 400 -15 q 217 -12 226 -15 l 132 -187 l 83 -187 l 172 -6 q 67 72 101 14 q 39 188 39 119 q 167 474 39 336 q 447 613 296 613 l 471 611 l 547 769 l 594 769 z "},"ù":{"ha":694,"x_min":58,"x_max":660,"o":"m 640 163 l 660 150 q 555 20 593 53 q 467 -12 517 -12 q 411 15 426 -12 q 401 60 401 33 q 419 153 401 76 q 461 315 438 229 q 361 160 383 190 q 254 35 301 75 q 135 -15 194 -15 q 77 3 96 -15 q 58 67 58 22 q 111 300 58 100 q 164 515 164 500 q 147 549 164 543 q 81 556 129 556 l 81 575 q 289 613 185 588 l 293 610 l 167 106 q 169 73 163 88 q 196 58 175 58 q 322 164 242 58 q 391 261 354 206 q 455 374 428 317 q 543 600 482 431 l 646 600 l 536 185 q 522 129 533 174 q 510 75 510 85 q 526 53 510 53 q 589 100 547 53 q 640 163 608 122 m 506 683 l 311 831 q 290 852 296 843 q 285 874 285 861 q 298 909 285 896 q 335 922 311 922 q 359 917 349 922 q 388 890 369 913 l 549 683 l 506 683 z "},"ú":{"ha":694,"x_min":58,"x_max":663,"o":"m 640 163 l 660 150 q 555 20 593 53 q 467 -12 517 -12 q 411 15 426 -12 q 401 60 401 33 q 419 153 401 76 q 461 315 438 229 q 361 160 383 190 q 254 35 301 75 q 135 -15 194 -15 q 77 3 96 -15 q 58 67 58 22 q 111 300 58 100 q 164 515 164 500 q 147 549 164 543 q 81 556 129 556 l 81 575 q 289 613 185 588 l 293 610 l 167 106 q 169 73 163 88 q 196 58 175 58 q 322 164 242 58 q 391 261 354 206 q 455 374 428 317 q 543 600 482 431 l 646 600 l 536 185 q 522 129 533 174 q 510 75 510 85 q 526 53 510 53 q 589 100 547 53 q 640 163 608 122 m 639 833 l 401 686 l 353 686 l 578 908 q 613 922 592 922 q 649 908 635 922 q 663 874 663 894 q 639 833 663 849 z "},"û":{"ha":694,"x_min":58,"x_max":660,"o":"m 640 163 l 660 150 q 555 20 593 53 q 467 -12 517 -12 q 411 15 426 -12 q 401 60 401 33 q 419 153 401 76 q 461 315 438 229 q 361 160 383 190 q 254 35 301 75 q 135 -15 194 -15 q 77 3 96 -15 q 58 67 58 22 q 111 300 58 100 q 164 515 164 500 q 147 549 164 543 q 81 556 129 556 l 81 575 q 289 613 185 588 l 293 610 l 167 106 q 169 73 163 88 q 196 58 175 58 q 322 164 242 58 q 391 261 354 206 q 455 374 428 317 q 543 600 482 431 l 646 600 l 536 185 q 522 129 533 174 q 510 75 510 85 q 526 53 510 53 q 589 100 547 53 q 640 163 608 122 m 515 918 l 638 683 l 588 683 l 474 828 l 283 683 l 229 683 l 447 918 l 515 918 z "},"ü":{"ha":694,"x_min":58,"x_max":665,"o":"m 640 163 l 660 150 q 555 20 593 53 q 467 -12 517 -12 q 411 15 426 -12 q 401 60 401 33 q 419 153 401 76 q 461 315 438 229 q 361 160 383 190 q 254 35 301 75 q 135 -15 194 -15 q 77 3 96 -15 q 58 67 58 22 q 111 300 58 100 q 164 515 164 500 q 147 549 164 543 q 81 556 129 556 l 81 575 q 289 613 185 588 l 293 610 l 167 106 q 169 73 163 88 q 196 58 175 58 q 322 164 242 58 q 391 261 354 206 q 455 374 428 317 q 543 600 482 431 l 646 600 l 536 185 q 522 129 533 174 q 510 75 510 85 q 526 53 510 53 q 589 100 547 53 q 640 163 608 122 m 321 842 q 365 823 342 842 q 388 774 388 804 q 368 725 388 744 q 319 706 349 706 q 271 725 290 706 q 251 775 251 744 q 274 824 251 807 q 321 842 296 842 m 599 842 q 642 823 619 842 q 665 774 665 804 q 646 725 665 744 q 597 706 626 706 q 549 725 568 706 q 529 775 529 744 q 551 824 529 807 q 599 842 574 842 z "},"ý":{"ha":617,"x_min":-33,"x_max":638,"o":"m 21 556 l 21 579 q 106 593 63 586 q 221 613 214 613 q 279 475 233 613 q 339 261 325 338 l 367 100 q 474 288 432 207 q 536 458 536 410 q 499 508 536 486 q 461 564 461 531 q 474 597 461 582 q 513 613 488 613 q 571 589 550 613 q 592 526 592 565 q 485 242 592 444 q 256 -111 378 40 q 38 -286 115 -286 q -14 -270 6 -286 q -33 -224 -33 -254 q -18 -186 -33 -201 q 19 -171 -3 -171 q 68 -190 42 -171 q 104 -210 94 -210 q 139 -196 121 -210 q 192 -142 157 -182 q 251 -68 233 -93 q 285 4 285 -21 q 253 177 285 42 q 203 375 222 313 q 165 489 176 464 q 68 561 133 561 q 21 556 43 561 m 614 833 l 376 686 l 328 686 l 553 908 q 588 922 567 922 q 624 908 610 922 q 638 874 638 894 q 614 833 638 849 z "},"þ":{"ha":694,"x_min":-104,"x_max":651,"o":"m 526 435 q 503 526 526 499 q 435 553 481 553 q 332 508 385 553 q 252 393 279 464 q 194 212 225 322 q 163 63 163 101 q 183 24 163 38 q 232 11 203 11 q 443 161 350 11 q 526 435 526 296 m 181 -264 l 181 -285 l -104 -285 l -104 -262 q -35 -239 -56 -262 q -11 -181 -22 -224 q 57 86 14 -76 q 160 469 100 249 q 239 760 172 514 q 257 824 253 807 q 261 853 261 842 q 246 885 261 878 q 171 893 231 893 l 171 917 q 276 931 219 922 q 382 949 332 939 l 389 942 q 328 707 375 885 q 263 465 268 483 l 265 463 q 343 556 296 515 q 486 613 411 613 q 615 560 574 613 q 651 431 651 514 q 517 128 651 271 q 238 -15 383 -15 q 143 8 189 -15 q 113 -112 126 -57 q 92 -219 92 -200 q 122 -258 92 -249 q 181 -264 140 -264 z "},"ÿ":{"ha":617,"x_min":-33,"x_max":613,"o":"m 21 556 l 21 579 q 106 593 63 586 q 221 613 214 613 q 279 475 233 613 q 339 261 325 338 l 367 100 q 474 288 432 207 q 536 458 536 410 q 499 508 536 486 q 461 564 461 531 q 474 597 461 582 q 513 613 488 613 q 571 589 550 613 q 592 526 592 565 q 485 242 592 444 q 256 -111 378 40 q 38 -286 115 -286 q -14 -270 6 -286 q -33 -224 -33 -254 q -18 -186 -33 -201 q 19 -171 -3 -171 q 68 -190 42 -171 q 104 -210 94 -210 q 139 -196 121 -210 q 192 -142 157 -182 q 251 -68 233 -93 q 285 4 285 -21 q 253 177 285 42 q 203 375 222 313 q 165 489 176 464 q 68 561 133 561 q 21 556 43 561 m 268 842 q 312 823 289 842 q 335 774 335 804 q 315 725 335 744 q 267 706 296 706 q 218 725 238 706 q 199 775 199 744 q 221 824 199 807 q 268 842 243 842 m 546 842 q 590 823 567 842 q 613 774 613 804 q 593 725 613 744 q 544 706 574 706 q 496 725 515 706 q 476 775 476 744 q 499 824 476 807 q 546 842 521 842 z "},"˘":{"ha":463,"x_min":163,"x_max":581,"o":"m 540 903 l 581 903 q 501 747 565 810 q 347 683 436 683 q 208 736 254 683 q 163 903 163 789 l 203 903 q 244 804 203 843 q 354 765 286 765 q 474 809 421 765 q 540 903 528 853 z "},"˙":{"ha":463,"x_min":288,"x_max":424,"o":"m 357 842 q 401 823 378 842 q 424 774 424 804 q 404 725 424 744 q 356 706 385 706 q 307 725 326 706 q 288 775 288 744 q 310 824 288 807 q 357 842 332 842 z "},"ı":{"ha":386,"x_min":68,"x_max":326,"o":"m 308 158 l 326 143 q 239 33 278 69 q 133 -15 186 -15 q 76 18 92 -15 q 68 71 68 38 q 123 307 68 108 q 178 519 178 506 q 163 549 178 543 q 90 556 147 556 l 90 578 q 203 593 121 578 q 313 613 286 608 l 317 610 l 194 163 q 181 114 190 147 q 172 71 172 81 q 194 50 172 50 q 236 74 210 50 q 308 158 268 103 z "},"˚":{"ha":463,"x_min":215,"x_max":493,"o":"m 215 821 q 255 919 215 878 q 354 960 294 960 q 452 919 411 960 q 493 821 493 878 q 453 724 493 764 q 354 683 413 683 q 256 724 296 683 q 215 821 215 764 m 263 821 q 285 760 263 789 q 353 731 308 731 q 419 756 393 731 q 446 821 446 781 q 419 885 446 858 q 353 913 392 913 q 286 883 310 913 q 263 821 263 853 z "},"˛":{"ha":463,"x_min":-28,"x_max":278,"o":"m 254 -103 l 278 -128 q 211 -200 250 -172 q 103 -235 161 -235 q 12 -197 51 -235 q -28 -108 -28 -158 q 1 -10 -28 -53 q 69 56 24 22 l 103 56 q 71 -6 85 29 q 57 -75 57 -42 q 80 -127 57 -107 q 132 -147 103 -147 q 254 -103 206 -147 z "},"ˇ":{"ha":463,"x_min":168,"x_max":592,"o":"m 592 918 l 365 683 l 301 683 l 168 918 l 219 918 l 344 772 l 542 918 l 592 918 z "},"Ł":{"ha":772,"x_min":-11,"x_max":776,"o":"m 749 257 l 776 249 l 696 0 l -11 0 l -11 22 q 61 46 44 32 q 101 125 85 65 l 176 394 l 39 313 l 57 379 l 194 461 l 272 739 q 284 785 281 765 q 288 825 288 804 q 262 872 288 858 q 181 885 236 885 l 181 907 l 560 907 l 560 885 q 481 867 506 881 q 419 782 436 843 l 351 539 l 550 657 l 531 589 l 333 474 q 265 229 329 457 q 233 99 233 115 q 268 60 233 69 q 376 50 303 50 q 590 76 529 50 q 749 257 686 118 z "},"ł":{"ha":386,"x_min":51,"x_max":426,"o":"m 290 569 l 426 639 l 410 575 l 274 506 l 178 138 q 171 107 174 118 q 164 72 164 78 q 185 44 164 44 q 317 171 218 44 l 335 158 q 235 32 275 69 q 124 -15 183 -15 q 70 9 83 -15 q 57 71 57 33 q 85 190 57 83 q 151 436 106 271 l 51 386 l 68 450 l 168 500 q 231 740 204 635 q 258 854 258 846 q 232 883 258 878 q 164 889 206 889 l 164 911 q 381 949 272 924 l 388 942 l 290 569 z "},"∕":{"ha":232,"x_min":-235,"x_max":468,"o":"m 468 939 l -164 -14 l -235 -14 l 397 939 l 468 939 z "},"":{"ha":694,"x_min":-196,"x_max":668,"o":"m 183 550 l 63 550 l 72 594 l 193 594 q 290 819 238 744 q 529 946 381 946 q 626 922 585 946 q 668 850 668 897 q 652 806 668 822 q 610 790 636 790 q 569 806 586 790 q 553 847 553 821 q 562 878 553 868 q 571 893 571 889 q 522 915 571 915 q 381 824 432 915 q 300 594 350 769 l 508 594 q 555 596 536 594 q 600 600 574 597 l 646 606 l 653 601 q 652 592 653 600 q 646 563 651 585 q 576 308 607 424 q 514 67 514 79 q 531 51 514 51 q 585 89 547 51 q 638 147 608 113 l 660 135 q 571 31 610 64 q 478 -11 524 -11 q 428 8 446 -11 q 410 60 410 28 q 472 325 410 100 q 528 524 500 424 q 507 550 535 550 l 292 550 l 192 106 q 99 -154 154 -57 q -87 -287 22 -287 q -175 -254 -147 -287 q -196 -201 -196 -229 q -183 -164 -196 -182 q -144 -146 -169 -146 q -111 -157 -125 -146 q -90 -197 -90 -174 q -97 -221 -90 -208 q -103 -236 -103 -233 q -69 -254 -103 -254 q 32 -136 -10 -254 q 60 -33 49 -89 q 128 304 103 182 q 183 550 174 531 z "},"":{"ha":694,"x_min":-196,"x_max":719,"o":"m 300 594 l 532 594 l 582 794 q 577 820 585 804 q 569 844 569 836 q 578 869 569 856 q 586 885 586 883 q 572 907 586 897 q 528 917 558 917 q 397 844 451 917 q 307 622 342 771 l 300 594 m 521 550 l 290 550 l 194 119 q 83 -175 150 -75 q -86 -283 11 -283 q -162 -262 -135 -283 q -196 -199 -196 -237 q -183 -159 -196 -176 q -144 -142 -169 -142 q -107 -157 -124 -142 q -90 -192 -90 -172 q -97 -215 -90 -204 q -103 -231 -103 -226 q -68 -249 -103 -249 q 15 -171 -21 -249 q 60 -29 42 -114 l 181 550 l 57 550 l 65 594 l 192 594 q 301 831 233 746 q 540 947 396 947 q 577 944 560 947 q 604 940 594 942 q 633 935 614 939 q 658 932 651 932 q 689 940 669 932 l 713 947 q 719 933 719 947 q 717 915 719 929 q 660 682 688 799 q 564 290 567 303 q 514 67 514 79 q 531 50 514 50 q 594 99 549 50 q 638 146 626 133 l 660 133 q 553 15 601 50 q 475 -12 514 -12 q 410 60 410 -12 q 474 363 410 114 q 521 550 518 535 z "},"Ž":{"ha":772,"x_min":-8,"x_max":842,"o":"m 842 907 l 842 888 l 171 50 l 394 50 q 624 87 561 50 q 742 238 688 124 l 768 233 l 693 0 l -8 0 l -8 19 l 657 857 l 419 857 q 213 814 274 857 q 129 697 174 786 l 103 704 l 167 907 l 842 907 m 747 1213 l 521 978 l 457 978 l 324 1213 l 375 1213 l 500 1067 l 697 1213 l 747 1213 z "},"ž":{"ha":540,"x_min":-3,"x_max":603,"o":"m 113 429 l 90 435 l 133 594 l 528 594 l 528 579 l 125 101 q 226 60 190 88 q 313 -37 253 39 q 358 -78 336 -68 q 389 -83 371 -83 q 416 -78 404 -83 q 428 -61 428 -74 q 422 -44 428 -56 q 408 0 408 -18 q 457 43 408 43 q 485 35 472 43 q 504 -8 504 21 q 465 -81 504 -49 q 374 -112 426 -112 q 221 -53 321 -112 q 72 7 121 7 q 10 -18 39 7 l -3 -6 l 428 511 l 225 511 q 161 500 179 511 q 113 429 133 483 m 603 918 l 376 683 l 313 683 l 179 918 l 231 918 l 356 772 l 553 918 l 603 918 z "}}}
